<svg id="Layer_1" data-name="Layer 1" xmlns="http://www.w3.org/2000/svg" xmlns:xlink="http://www.w3.org/1999/xlink" viewBox="0 0 1000 1000"><defs><linearGradient id="linear-gradient" x1="251.19" y1="603.87" x2="313.47" y2="603.87" gradientUnits="userSpaceOnUse"><stop offset="0" stop-color="#ff6f00"/><stop offset="1" stop-color="#ff3d00"/></linearGradient><linearGradient id="linear-gradient-2" x1="181.85" y1="612" x2="241.34" y2="612" xlink:href="#linear-gradient"/></defs><title>DrivingLesson</title><path d="M784.47,500.3h0c13.3,102-80.2,185.31-180,160.43L487.87,631.65,482.22,90.84l41.17,15.44L554.32,313.4A121.19,121.19,0,0,0,613,400.15Z" style="fill:#eceff1"/><path d="M367.93,705.24,582.73,613,510.5,310.62l-14.06-8.15a16.42,16.42,0,0,0-16.43,0l-114.5,63.88a104.56,104.56,0,0,0-50.78,115.53Z" style="fill:#eceff1"/><path d="M411.89,351.74c-1.27-7.53-4.6-27.44-4.6-27.44l-14.62.61,4.51,28.43c.61,3.16,3.33,4.48,7.44,4.48s7.44-2,7.44-4.48A12,12,0,0,0,411.89,351.74Z" style="fill:#cfd8dc"/><path d="M312.35,451.17h-.08l-2.52,316.41,76.37-43.74-39.73-245.5A32.37,32.37,0,0,0,312.35,451.17Z" style="fill:#dae1e6"/><path d="M361.31,255.91l96.51-53.42A11.92,11.92,0,0,1,472.9,205c19.08,22.59,16.1,54.5,9.19,75.09a34.81,34.81,0,0,1-15.45,19l-95.15,55.66C377.07,317.13,385.85,289,361.31,255.91Z" style="fill:#eceff1"/><path d="M352.39,264.74c-9.57,30.15-10.95,57.33,6.14,86.77,1.75,3,5.56,4.77,9.5,4.4h0c4.54-.43,8.39-4.56,10.65-7.92,15.42-23,21.66-66.8-7.43-90.9A10.37,10.37,0,0,0,363.7,255l-.2,0C358.14,255.49,353.79,260.32,352.39,264.74Z" style="fill:#dae1e6"/><path d="M564.18,332.7c19.53,77.35,36.89,157.78,70.32,190l78.55-35.41,12.79,28.95L615.11,572.77C569.5,519.34,542.34,460,529.63,396.1Z" style="fill:#ffc4b2"/><path d="M582.73,506.72l-6,12.79a392.39,392.39,0,0,0,38.36,53.26L634,563.1h0Z" style="fill:#ffb199"/><path d="M601.64,512.83a107.11,107.11,0,0,1,14.93-14.27c-22.38-39.49-36.69-103.66-52.39-165.86l-34.55,63.4c9.7,48.82,27.87,94.94,56.21,137.81A171.26,171.26,0,0,1,601.64,512.83Z" style="fill:#ff5019"/><path d="M601.55,476.5c-10.53,7.12-24.24,20.71-31.44,28.58a5.54,5.54,0,0,0-.74,6.45q5.27,9.36,11.06,18.55a5.53,5.53,0,0,0,9.21.14,185.34,185.34,0,0,1,13-16.52,128.45,128.45,0,0,1,13.16-13.09,5.47,5.47,0,0,0,1.28-6.74q-3.8-7.1-7.33-15A5.53,5.53,0,0,0,601.55,476.5Z" style="fill:#ff5019"/><path d="M518.31,305.47,388.67,378.3c-.61,108.21-26.15,156.23,2.53,276,4.46,18.6,33.81,41.8,54.64,34.86l147.61-81.6c-32.49-60.18-29.81-157.22-27.29-258.41C566.15,332.89,561.12,286.58,518.31,305.47Z" style="fill:#ff5019"/><path d="M571.21,406.51s-6.6-49.53-7.69-53.45c-4.09-14.72-15.13-25.36-26.87-27.85-13.08-2.77-15.27-11.09-15.27-11.09s15.94-18.73,30.29-8.77,21.12,51.41,21.12,51.41Z" style="fill:#ff5019"/><path d="M530.89,457.64c-22.81-14.76-56.23-36.85-79-70C435.77,364.24,422,359.75,422,359.75c37.76-21.81,34.41-26.42,85.64-33.92l16.55,14.82C543.72,368.29,530.89,457.64,530.89,457.64Z" style="fill:#ffc4b2"/><path d="M473.23,413.12c19.44,19.52,46,70.46,62.41,81.06.13-46.38.48-95.86-1.28-115.68C534.37,378.5,497.2,402.24,473.23,413.12Z" style="fill:#fff"/><path d="M535.11,391.59A438.34,438.34,0,0,1,481,422l1.27,1.61a441.39,441.39,0,0,0,52.95-29.65Q535.15,392.74,535.11,391.59Z" style="fill:#293033"/><path d="M535.34,398.91a398.35,398.35,0,0,1-50.25,28.41l1.21,1.64a401.41,401.41,0,0,0,49.1-27.68C535.38,400.47,535.36,399.68,535.34,398.91Z" style="fill:#293033"/><path d="M535.49,406.27A364.1,364.1,0,0,1,489,432.75l1.17,1.65a367.17,367.17,0,0,0,45.32-25.76C535.52,407.85,535.51,407.06,535.49,406.27Z" style="fill:#293033"/><path d="M535.6,413.66a334.52,334.52,0,0,1-42.7,24.59l1.15,1.66a337.65,337.65,0,0,0,41.58-23.86C535.62,415.25,535.61,414.46,535.6,413.66Z" style="fill:#293033"/><path d="M535.68,421.09a308.8,308.8,0,0,1-39,22.71l1.13,1.67a311.87,311.87,0,0,0,37.87-22C535.69,422.69,535.68,421.88,535.68,421.09Z" style="fill:#293033"/><path d="M535.72,428.53a286.15,286.15,0,0,1-35.27,20.83l1.12,1.67a289.18,289.18,0,0,0,34.16-20.08C535.73,430.14,535.73,429.33,535.72,428.53Z" style="fill:#293033"/><path d="M535.75,436a266.07,266.07,0,0,1-31.57,18.92l1.12,1.67a269.06,269.06,0,0,0,30.45-18.16C535.75,437.6,535.75,436.79,535.75,436Z" style="fill:#293033"/><path d="M535.76,443.46a248.14,248.14,0,0,1-27.85,17L509,462.1a251.06,251.06,0,0,0,26.72-16.2Q535.76,444.67,535.76,443.46Z" style="fill:#293033"/><path d="M535.76,450.94a232,232,0,0,1-24.09,15l1.14,1.65a234.94,234.94,0,0,0,22.95-14.18C535.76,452.57,535.76,451.75,535.76,450.94Z" style="fill:#293033"/><path d="M535.75,458.43a217.41,217.41,0,0,1-20.3,12.89l1.17,1.63a220.31,220.31,0,0,0,19.12-12.06Q535.74,459.65,535.75,458.43Z" style="fill:#293033"/><path d="M535.73,465.93c-5.5,4-11,7.53-16.43,10.68l1.21,1.61c5-2.93,10.11-6.2,15.21-9.83Q535.73,467.16,535.73,465.93Z" style="fill:#293033"/><path d="M535.71,473.43c-4.15,3-8.32,5.78-12.44,8.31l1.27,1.56c3.7-2.28,7.44-4.75,11.17-7.41Q535.7,474.66,535.71,473.43Z" style="fill:#293033"/><path d="M414.2,428l21.53,145.72,6.08,38.13-3.86,7.73-35.88,1.1s-14.35-28.71-20.43-60.18S414.2,428,414.2,428Z" style="fill:#ff3d00"/><path d="M425.15,366.17l13.79,86.91a12.74,12.74,0,0,0,11.94,10.73l21.9,1.1-10.91,12.55a6.37,6.37,0,0,0,1.76,9.77l56.85,30.94-88-26.67Z" style="fill:#ff3d00"/><path d="M361.08,414.4c3.63,48.12,7.91,139.77,41.11,197.2l23.88-39.8L412.56,408.43a24.28,24.28,0,0,0-18.87-22.12h0A26.76,26.76,0,0,0,361.08,414.4Z" style="fill:#ff5019"/><path d="M401,373.63a18.28,18.28,0,0,0-5.89,1.15c-2.95,1.15-27.57,15.49-30.68,24.62,0,0,12-15.13,28.33-13.49Z" style="fill:#ff5019"/><polygon points="567.17 500.99 498.45 537.59 568.3 514.5 567.17 500.99" style="fill:#ff3d00"/><path d="M529.69,319.59s3.6,15.12,7.55,26.36,6.53,113.51-27.77,171.52C499.09,535,376.12,702.22,376.12,702.22L393.19,718s123-164.56,141.5-198.48C565.46,463,562,362.11,559,345.32s-22.3-49.94-22.3-49.94Z" style="fill:#38454c"/><path d="M453.87,336.45s32,83.24,57.09,129.27l-49.35-3.84a25.46,25.46,0,0,1-23.05-20.67c-4.94-26.19-13.4-70.72-17.14-81.31l4.3-7.31C430.73,345.07,453.87,336.45,453.87,336.45Z" style="fill:#ff5019"/><path d="M587.65,647.5c-.89,0-1.77,0-2.64-.06-17.41-.74-30.9-8.68-38-22.36-11.34-21.89-4.78-54.74,18-90.13,34.45-53.49,94-94,135.62-92.25,17.41.74,30.9,8.68,38,22.36,11.34,21.89,4.78,54.74-18,90.14h0C686.9,607.56,629.09,647.5,587.65,647.5ZM697.8,469.63c-31.93,0-81.81,36.08-110.06,79.93-20.23,31.4-21.66,53.61-16.75,63.1.94,1.81,3.8,7.33,15.16,7.81,31.9,1.37,83-35.24,111.79-79.9h0c20.23-31.4,21.66-53.61,16.75-63.1-.94-1.81-3.8-7.33-15.16-7.81C699,469.64,698.38,469.63,697.8,469.63Z" style="fill:#38454c"/><path d="M585.78,558.15c-9-8.71-22.42-10.55-28.73-8.43-4.72,1.59-13.37,10.17-17.27,13.31-11.79,4.49-27.67,9.56-38.65,9.32-30.09-.65-76.8-3.05-76.8-3.05-31.84,11.7-22.14,42.29-22.14,42.29,4.91,3.59,67.44-1.5,88.89-6,12.78-2.71,30.32-7.55,42.41-11l8.63,3.84,25.2-4.2s7.17-10.63,8.89-11.88c4.21-3.06,5.18-13.4,7.66-13.79S587.74,560.05,585.78,558.15Z" style="fill:#ffc4b2"/><path d="M400.8,601.16a38.14,38.14,0,0,0,1.39,10.43c4.91,3.59,67.44-1.5,88.89-6,12.16-2.58,28.63-7.09,40.62-10.51C488.5,600.39,445.78,603,400.8,601.16Z" style="fill:#ffb199"/><path d="M520.77,597.95c-1.14,10-5.84,16.86-8.71,16.86-3.38,0-8.3-8.57-8.3-22s4.92-22,8.3-22a2.94,2.94,0,0,1,1.58.57,79.82,79.82,0,0,1,8.43-2.3,11.82,11.82,0,0,0-10-5.63c-8.93,0-15.66,12.62-15.66,29.36s6.73,29.36,15.66,29.36c7,0,13.9-14.54,16-26.07C525.78,596.6,522.74,597.55,520.77,597.95Z" style="fill:#ffab00"/><path d="M536.86,596.25c-1.36-.88-2.13-1.18-3.47-2.06-1.14,10-5.84,16.86-8.71,16.86-3.39,0-8.3-8.57-8.3-22s4.92-22,8.3-22a2.94,2.94,0,0,1,1.58.57,79.84,79.84,0,0,1,8.43-2.3,11.82,11.82,0,0,0-10-5.63c-8.93,0-15.66,12.62-15.66,29.36s6.73,29.36,15.66,29.36c7,0,12.81-9.65,14.89-21.18C538.67,596.7,537.77,596.84,536.86,596.25Z" style="fill:#ffab00"/><path d="M92,865.23l218.7-80L234.59,470.61l-14.06-8.15a16.42,16.42,0,0,0-16.43,0L89.61,526.31A104.56,104.56,0,0,0,38.84,641.84Z" style="fill:#eceff1"/><path d="M136,511.73c-1.27-7.53-4.6-27.44-4.6-27.44l-14.62.61s4.5,28.38,4.51,28.43c.61,3.16,3.33,4.48,7.44,4.48s7.44-2,7.44-4.48A12,12,0,0,0,136,511.73Z" style="fill:#cfd8dc"/><path d="M43.52,578.51c-21.13,48.1-24.43,179.9-10.84,289.62,4.5,36.28,44.45,56.3,76.17,38.12l4.25-2.43L70.47,638.33C67.81,621.86,60.17,577.41,43.52,578.51Z" style="fill:#dae1e6"/><path d="M78.72,420.12c5.16-9.37,67.24-43.7,103.19-57.64A11.92,11.92,0,0,1,197,365c19.08,22.59,16.1,54.5,9.19,75.09a34.81,34.81,0,0,1-15.45,19L95.57,514.72C101.16,477.12,103.26,453.25,78.72,420.12Z" style="fill:#eceff1"/><path d="M327.64,536.79c11.47,85.71,28.6,185.16,64.66,218l-60.6,29L279.28,615Z" style="fill:#ffc4b2"/><path d="M357.71,662.61c-18.44-42.35-19.34-81.18-29-125L280.34,615.8l22.81,68.9C323.48,681.39,340.17,673.11,357.71,662.61Z" style="fill:#fff"/><path d="M152.92,891l182.59-107.1s-5.38-151.21-3.5-226.16c0-18.05-23.79-114.55-89.88-81.94L112.44,548.31c-7.45,23.81-17.28,38.74-19.26,61.77-6.57,76.42,8.5,147.39,31.74,245.26A54,54,0,0,0,152.92,891Z" style="fill:#fff"/><path d="M286.59,623.21a15.85,15.85,0,0,1-12-1,19.12,19.12,0,0,1-9.48-11.49,22.2,22.2,0,0,1,.78-15.66,19.54,19.54,0,0,1,10.63-10.53q.64-.25,1.29-.45a17.4,17.4,0,0,1,12.86.94A17.87,17.87,0,0,1,300,595.86a22.07,22.07,0,0,1-.86,15.34,21.18,21.18,0,0,1-10.43,11.2,17.5,17.5,0,0,1-2.12.82M273.74,571q-.7.22-1.4.47c-16.48,6.16-25.13,25.94-19.36,44,5.29,16.62,21,26.16,36,21.5a27.53,27.53,0,0,0,4-1.58c16-8,24.26-28.82,19-45A30.34,30.34,0,0,0,273.74,571" style="fill:#ff6f00"/><path d="M233,616.15l-.23.08q-11.39,4-22.87,7.66a6.57,6.57,0,0,0-4.13,8.34,6.85,6.85,0,0,0,8.28,4.64q4.18-1.23,8.35-2.53,7.33-2.29,14.61-4.79c3.41-1.16,5.2-5.14,4-8.83a6.5,6.5,0,0,0-8-4.56m-2.11-29-.33.11c-14.72,5.53-29.44,11-44.21,16.32a6.73,6.73,0,0,0-4.13,8.32,6.49,6.49,0,0,0,8.11,4.19h0q22.33-7.25,44.44-15.46c3.37-1.24,5.15-5.25,4-9a6.4,6.4,0,0,0-7.89-4.5" style="fill:#ff6f00"/><path d="M286.59,623.21a15.85,15.85,0,0,1-12-1,19.12,19.12,0,0,1-9.48-11.49,22.2,22.2,0,0,1,.78-15.66,19.54,19.54,0,0,1,10.63-10.53q.64-.25,1.29-.45a17.4,17.4,0,0,1,12.86.94A17.87,17.87,0,0,1,300,595.86a22.07,22.07,0,0,1-.86,15.34,21.18,21.18,0,0,1-10.43,11.2,17.5,17.5,0,0,1-2.12.82M273.74,571q-.7.22-1.4.47c-16.48,6.16-25.13,25.94-19.36,44,5.29,16.62,21,26.16,36,21.5a27.53,27.53,0,0,0,4-1.58c16-8,24.26-28.82,19-45A30.34,30.34,0,0,0,273.74,571" style="fill:url(#linear-gradient)"/><path d="M233,616.15l-.23.08q-11.39,4-22.87,7.66a6.57,6.57,0,0,0-4.13,8.34,6.85,6.85,0,0,0,8.28,4.64q4.18-1.23,8.35-2.53,7.33-2.29,14.61-4.79c3.41-1.16,5.2-5.14,4-8.83a6.5,6.5,0,0,0-8-4.56m-2.11-29-.33.11c-14.72,5.53-29.44,11-44.21,16.32a6.73,6.73,0,0,0-4.13,8.32,6.49,6.49,0,0,0,8.11,4.19h0q22.33-7.25,44.44-15.46c3.37-1.24,5.15-5.25,4-9a6.4,6.4,0,0,0-7.89-4.5" style="fill:url(#linear-gradient-2)"/><path d="M131.41,553.07a29.77,29.77,0,0,0-38,29.2c.72,36.41-3.07,136.25,30.34,210.95,30.15,27,57,26.31,120.73,35,0,0,26.58-6.91,56.08-26.21-37.82-8.8-121.83-24.11-131.54-38.94-23.83-79.17-18-184.28-18-184.28a27,27,0,0,0-19.59-25.74Z" style="fill:#ffc4b2"/><path d="M175.88,722.14,153.46,575.29c-.11-12.82-8.8-25.13-21.12-28.66-20.62-5.89-37.82,10.7-43.11,31.47-8.41,33,4.1,144.7,4.1,144.7C115.3,728.78,154.64,727.11,175.88,722.14Z" style="fill:#eceff1"/><path d="M165.46,722.84l-12-147.54c-.11-12.82-8.8-25.13-21.12-28.66-20.62-5.89-37.82,10.7-43.11,31.47-8.41,33,4.1,144.7,4.1,144.7C115.3,728.78,144.22,727.8,165.46,722.84Z" style="fill:#fff"/><path d="M251.6,515.58c3.31,13.65,1.49,30-20.9,35.37-23.69,5.7-59.48-13.5-59.8-32.47-.24-14,18.8-21.31,41.83-21.31S247.48,498.59,251.6,515.58Z" style="fill:#fafbfc"/><path d="M225.48,535.25c26.07,0,18.54-44.22,20.08-77.6H179.81c1.72,10.26,2.84,32-1.31,44a11.67,11.67,0,0,0,1.19,10.57C190.37,527.39,207.7,535.25,225.48,535.25Z" style="fill:#ffb199"/><path d="M252.85,450.21c-11.67-10.91-41.53-22.81-43.75-23.69a.21.21,0,0,1-.13-.2V372.56l69.33,13.38,2.5,51.47C281.15,452.11,263.59,460.24,252.85,450.21Z" style="fill:#a26a56"/><path d="M278.25,425.49c0,35.57-7,76.64-35.21,76.64s-62.89-37-62.89-72.59,30.25-56.43,58.46-56.43S278.25,389.93,278.25,425.49Z" style="fill:#ffc4b2"/><path d="M273.52,472.79c0-5.33-5-8.35-11.18-6.74l-6.23,1.63c-9.41,2.46-17.06,11.09-17.05,19.24h0a5,5,0,0,1-6.6,4.77c-12.25-4.18-24.46-14.06-28.58-32.49a1.46,1.46,0,0,1,0-.38l2-44.31a1.36,1.36,0,0,0-2-1.27l-8.48,4.31a1.36,1.36,0,0,0-.74,1.23l.6,40.09.13,0c1.92,34.63,25.85,51.77,52.42,52.09,13.83.17,25.11-11.16,25.34-29.1l0-.43A50.34,50.34,0,0,0,273.52,472.79Zm-8.42,13.65c-1.33,6.65-6.88,7.67-12.55,7.77a5,5,0,0,1-5.14-5v-4.47c0-4.16,3.9-8.57,8.72-9.83l6.23-1.63c1.56-.41,2.82.36,2.83,1.7,0,0,0,8.34,0,10.48Z" style="fill:#ffc4b2"/><path d="M249.26,480.13c-1.41.66-1.67,3.3-.18,4.13a8.24,8.24,0,0,0,3.76,1.19,14.23,14.23,0,0,0,6.11-1.21,11.24,11.24,0,0,0,4.9-4.53c.88-1.44.62-4.94.62-4.94a13.84,13.84,0,0,1-4.37,3A26.09,26.09,0,0,1,249.88,480a1.59,1.59,0,0,0-.62.15" style="fill:#fff"/><path d="M262.46,455.85c-1.07.25-3.47,2.61-6.44,3.29s-5.67-.5-6.74-.25c-.35.08-.52.31-.48.81.17,2,3.7,5.21,7.64,4.3s6.8-5.56,6.62-7.59c0-.5-.25-.64-.6-.56" style="fill:#ffb199"/><path d="M273.52,472.79c0-5.33-5-8.35-11.18-6.74l-6.23,1.63c-9.41,2.46-17.06,11.09-17.05,19.24h0a5,5,0,0,1-6.6,4.77c-12.25-4.18-24.46-14.06-28.58-32.49a1.46,1.46,0,0,1,0-.38l2-44.31a1.36,1.36,0,0,0-2-1.27l-8.48,4.31a1.36,1.36,0,0,0-.74,1.23l.6,40.09.13,0c1.92,34.63,25.85,51.77,52.42,52.09,13.83.17,25.11-11.16,25.34-29.1l0-.43A50.34,50.34,0,0,0,273.52,472.79Zm-8.42,13.65c-1.33,6.65-6.88,7.67-12.55,7.77a5,5,0,0,1-5.14-5v-4.47c0-4.16,3.9-8.57,8.72-9.83l6.23-1.63c1.56-.41,2.82.36,2.83,1.7,0,0,0,8.34,0,10.48Z" style="fill:#9c614c"/><path d="M289.65,415.74l-1.86-1.46a1,1,0,0,1,.06-1.66,9.61,9.61,0,0,0,1.95-1.74,1,1,0,0,0-.48-1.57,13.73,13.73,0,0,1-5.52-4.92,30.54,30.54,0,0,0-.37-4.87C281.65,374,265.54,355.91,235,351.4c-.07.09-15.65-9.78-27.92-9.16-44.17,1.57-64.22,50.85-48.2,90.4,9.53,24.13,3,25.54,14,28.13a248.44,248.44,0,0,1,9.54,26c-1.52-15.38-2-53.87,16.44-64.19,11.39,5.52,22.89,5.6,31.55,1.48,9.51-4.62,22-13.82,31.72-15.14,7.7-1.09,12.25,2.57,14.64,5.5A44.53,44.53,0,0,0,278.68,425c5.27-1.43,9.58-6.09,11.14-7.91A.93.93,0,0,0,289.65,415.74Z" style="fill:#915039"/><path d="M291.33,416.53l-1.86-1.86a1.44,1.44,0,0,1,0-2.08,10.29,10.29,0,0,0,1.87-2.21,1.42,1.42,0,0,0-.51-2,15.68,15.68,0,0,1-5.53-6,46.25,46.25,0,0,0-.51-6c-2.6-32-19.72-50.7-49.5-48.86,0,0-16.07-7-27.83-3.85-41.9,10.68-54.16,51.59-42.31,86.66,7.4,21.76.46,22.64,10.92,25.86a142,142,0,0,1,5.49,24.6c1.81-14.06,4.82-48.83,22.11-58.48,10.7,5.6,21.76,6.45,30.16,2.41,9.24-4.41,21.2-14.52,30.56-16.32,7.43-1.41,11.93,2.85,14.31,6.46a70.81,70.81,0,0,0,1.93,12.91c5.17-1.46,9.36-7.16,10.86-9.46A1.41,1.41,0,0,0,291.33,416.53Z" style="fill:#915039"/><path d="M289.75,416.2l-1.8-1.71a1.28,1.28,0,0,1,0-1.92,9.65,9.65,0,0,0,1.81-2,1.27,1.27,0,0,0-.49-1.82,14.62,14.62,0,0,1-5.32-5.58,41.82,41.82,0,0,0-.45-5.56c-2.09-29.48-18.27-47.52-48.2-47.52,0,0-16-7.56-27.81-5.14-41.95,8.61-54.18,50.61-42.34,85.37,7.4,21.73.46,22.65,10.92,25.78a140.64,140.64,0,0,1,5.5,24.4c1.8-14,4.82-48.72,22.06-58.32,10.66,5.47,21.64,6.11,29.95,2.12,9.13-4.38,20.89-14,30-15.66,7.26-1.29,11.62,2.71,13.93,6a60.58,60.58,0,0,0,1.93,12c5-1.43,9-6.71,10.45-8.82A1.24,1.24,0,0,0,289.75,416.2Z" style="fill:#915039"/><path d="M198.66,440.07c0,10.61-.83,19.82-8,19.82s-13.33-11.59-14.27-23.7c-.82-10.57,2.14-15.33,9.3-15.33S198.66,429.45,198.66,440.07Z" style="fill:#ffc4b2"/><path d="M123.79,793.21h0c30.15,27,57,26.31,120.73,35,0,0,6-16.54,28.73-28.88C203,804.12,188.5,824.13,123.79,793.21Z" style="fill:#ffb199"/><path d="M75,425.76c-11.62,29.43-9.49,56.29,7.59,85.74,1.75,3,5.56,4.77,9.5,4.4h0c4.54-.43,8.39-4.56,10.65-7.92,15.42-23,21.66-66.8-7.43-90.9a10.37,10.37,0,0,0-7.55-2.13l-.2,0C82.23,415.49,77.53,419.41,75,425.76Z" style="fill:#cfd8dc"/><path d="M654.61,202.73S716.82,301,734.24,344.57s56,134.37,48.52,153-32.35,33.59-32.35,33.59,103.27,53.5,120.68,48.52-11.2-82.11-23.64-103.27S693.18,210.2,693.18,210.2Z" style="fill:#eceff1"/><path d="M770.17,501.51c-16.11-8.73-62.78-29.28-120.6,4.19-34.14,19.76-48.67,48.54-69.56,78.82a179.8,179.8,0,0,1-81.68,64.91c-124.48,49.43-236,115.72-343.05,187.7-41,27.55-53.49,42.13-136.92-109.84C5.59,734.6,5.75,867.75,47.24,902.78c53.68,45.33,110.52,42.8,141.26,36.8,161.28-31.44,288.22-87.26,406.76-167.92,82.85-56.37,164.31-128,231.61-201.21,11-12-3.22-34.8-16.73-43.85S780.65,507.19,770.17,501.51Z" style="fill:#eceff1"/><path d="M818.89,530.09s23.07,12,7.1,36S679.13,720.42,595.28,767,347.74,918.85,170.08,934.73c-51.65,4.62-83.25-26.63-83.25-26.63s-4,54.57,75.87,55.9,388.65-89.18,511.11-181,206.31-190.33,210.3-207.64-16-65.22-16-65.22Z" style="fill:#eceff1"/><path d="M905.41,510.12c-55.85-89.36-183-294.26-210-313.89C670.59,178.17,388.92,21.06,361.82,5.82V23.52a32.3,32.3,0,0,0,17.46,28.7c46,23.81,265,141.45,284.25,158.74,24.54,22.09,141.6,223,164.68,272.54,14.82,31.86,39,75.92-.26,110.28C790.31,626.71,573.7,875.52,189.28,944.17A111.91,111.91,0,0,1,74,892C33.22,824.69,18.35,727.31,18.35,727.31c-2.91,3.41-5.56,6.78-7.94,10C-.83,752.68-1.53,768,1.63,786.78,7.15,819.4,23.14,889.19,23.14,889.19A136.55,136.55,0,0,0,154.36,994.05c135.49,1.66,371.46-12.24,543.52-113.16C832.09,802.18,920.83,731.6,974.81,682.37c36.59-33.37,32.79-92.14-8-120.19C939.66,543.55,913.81,523.56,905.41,510.12Z" style="fill:#fafbfc"/><path d="M430.22,769.14a2.38,2.38,0,0,1-1.3-4.38C470.28,737.83,511,715.2,550,697.5a2.38,2.38,0,0,1,2,4.34c-38.76,17.6-79.29,40.12-120.46,66.92A2.37,2.37,0,0,1,430.22,769.14Z" style="fill:#dae1e6"/><path d="M442.78,782a2.38,2.38,0,0,1-1.3-4.38c41.37-26.93,82.11-49.57,121.09-67.27a2.38,2.38,0,0,1,2,4.34c-38.76,17.6-79.29,40.12-120.46,66.92A2.37,2.37,0,0,1,442.78,782Z" style="fill:#dae1e6"/><path d="M499.4,329.59c-1.85.47-2.77,3.62-1.16,5a10.15,10.15,0,0,0,4.28,2.29,17.52,17.52,0,0,0,7.67-.07,13.83,13.83,0,0,0,7-4.37c1.39-1.54,1.87-5.84,1.87-5.84a17,17,0,0,1-6,2.59,32.1,32.1,0,0,1-12.87.41,2,2,0,0,0-.79,0" style="fill:#fff"/><path d="M517.73,315.7c-1.09.13-3.73,2.22-6.76,2.58s-5.58-1.11-6.68-1c-.36,0-.56.25-.57.75,0,2,3.12,5.58,7.13,5.1s7.36-4.79,7.4-6.83c0-.5-.18-.66-.54-.62" style="fill:#ffb199"/><path d="M499.4,329.59c-1.85.47-2.77,3.62-1.16,5a10.15,10.15,0,0,0,4.28,2.29,17.52,17.52,0,0,0,7.67-.07,13.83,13.83,0,0,0,7-4.37c1.39-1.54,1.87-5.84,1.87-5.84a17,17,0,0,1-6,2.59,32.1,32.1,0,0,1-12.87.41,2,2,0,0,0-.79,0" style="fill:#fff"/><path d="M517.73,315.7c-1.09.13-3.73,2.22-6.76,2.58s-5.58-1.11-6.68-1c-.36,0-.56.25-.57.75,0,2,3.12,5.58,7.13,5.1s7.36-4.79,7.4-6.83c0-.5-.18-.66-.54-.62" style="fill:#ffb199"/><path d="M453.52,193.49c.15,1.51.76-25.5-27.64-27.08-41.19,1.46-51.85,53.47-31.07,93.3,19.2,38.9,22.67,85.22,57.61,76.55C467.57,332.5,447.51,221.88,453.52,193.49Z" style="fill:#38454c"/><ellipse cx="433" cy="202.04" rx="23.31" ry="17.95" transform="translate(-44.74 210.79) rotate(-26.06)" style="fill:#586a74"/><path d="M542.28,275.05c-2.48,36-16.17,76.77-44.72,74.8s-57.34-41.52-54.87-77.53,23-55.67,51.52-53.71S544.76,239,542.28,275.05Z" style="fill:#ffc4b2"/><path d="M527.06,345.67l-9.51,4.19c.82-7.6.55-16.72.46-26.44a16.37,16.37,0,0,0-16.36-16.21H454.53c1.58,9.4,2.63,18.52-.67,29.25h0s3.12,8.12,8.17,20.68a52.65,52.65,0,0,0,16.32,10L468,371.68l2,4.93,23.54-6c1.74.16,3.48.26,5.23.26,8.47,0,13.24-3.57,15.95-9.48,4.77-3.63,10.53-7.83,12.93-8.86a6.49,6.49,0,0,0,1.72-1.13A51.47,51.47,0,0,0,527.06,345.67Z" style="fill:#ffb199"/><path d="M451.42,317.38c-20.86-15.31-30.25-33.48-31.93-58.87s-3.52-39.06,11.4-54.81,33.51-19.09,60.45-10.79,45.27,30.3,52.22,55.47c6,21.82-8.51,58.39-22.91,64.66S472.28,332.69,451.42,317.38Z" style="fill:#38454c"/><path d="M542.28,275.05c-2.48,36-16.17,76.77-44.72,74.8s-57.34-41.52-54.87-77.53,23-55.67,51.52-53.71S544.76,239,542.28,275.05Z" style="fill:#ffc4b2"/><path d="M456.12,281.5c4.24,11,9.23,15.57,24.06,3.93,21.51-16.88,34.88,9.45,57.94-25.75,3.37,7.62,2.9,11.06,3.53,22.44,0,0,5.32-7.12,1.91-33.74-26.46-29.76-19-33-19-33l-72.94-1.16-13.69,69.45S455,278.7,456.12,281.5Z" style="fill:#38454c"/><path d="M458.68,286.14c-.53,7.71-1.59,14.34-6.79,14s-9.1-9.08-9.18-17.92c-.07-7.71,2.32-11,7.52-10.67S459.21,278.44,458.68,286.14Z" style="fill:#ffc4b2"/><path d="M499.4,329.59c-1.85.47-2.77,3.62-1.16,5a10.15,10.15,0,0,0,4.28,2.29,17.52,17.52,0,0,0,7.67-.07,13.83,13.83,0,0,0,7-4.37c1.39-1.54,1.87-5.84,1.87-5.84a17,17,0,0,1-6,2.59,32.1,32.1,0,0,1-12.87.41,2,2,0,0,0-.79,0" style="fill:#fff"/><path d="M517.73,315.7c-1.09.13-3.73,2.22-6.76,2.58s-5.58-1.11-6.68-1c-.36,0-.56.25-.57.75,0,2,3.12,5.58,7.13,5.1s7.36-4.79,7.4-6.83c0-.5-.18-.66-.54-.62" style="fill:#ffb199"/><path d="M542.11,598.37l25.2-4.2s7.17-10.63,8.89-11.88c2.39-1.74,3.73-5.81,4.9-9.08-7.43,3.95-12.79,5.27-15.76,11.3-3.44,7-16.91,8.06-31.35,10.26Z" style="fill:#ffb199"/><path d="M527.18,596.32l3.89-1.1A14.66,14.66,0,0,0,527.18,596.32Z" style="fill:#ffb199"/><path d="M340.48,699.94a43.41,43.41,0,0,0-16.39-32.89C278.67,631,204,573.22,175.31,559.87c-27.23-12.68-79.3-21.23-99.72-24.22a14.94,14.94,0,0,0-13.83,5.46l-8.47,10.59a6.54,6.54,0,0,0,4,10.54c24.84,4.42,85.08,15.7,104,24.46,43.22,20.06,138.74,98.8,172.75,127.35l.43,9.15h0a13.37,13.37,0,0,0,6.44-11.9Q340.63,705.62,340.48,699.94Z" style="fill:#38454c"/></svg>