<svg id="Layer_1" data-name="Layer 1" xmlns="http://www.w3.org/2000/svg" xmlns:xlink="http://www.w3.org/1999/xlink" viewBox="0 0 999.99 662.89"><defs><clipPath id="clip-path"><polygon points="22.49 487.77 20.84 465.3 32.77 472.55 34.42 495.02 22.49 487.77" style="fill:none"/></clipPath><clipPath id="clip-path-2"><path d="M698.91,443.2l-51,29.31c-7.72,4.44-17.23-.76-21.24-11.61l-35.56-96.31c-4-10.85-1-23.26,6.73-27.7l51-29.31c7.72-4.44,17.24.76,21.24,11.61l35.56,96.31c4,10.85,1,23.26-6.73,27.7" style="fill:none"/></clipPath></defs><title>PackshotDriving</title><path d="M176.87,186.24h0a26.58,26.58,0,0,0,12.83,22.39c10.65,6.7,22.88,15.25,36.51,17.83A17.67,17.67,0,0,0,247,209h0c0-12.85-4.77-17.61-20-27.33-6.93-4.44-16.35-10.72-25.34-12.32C189.15,167.09,176.87,173.51,176.87,186.24Z" style="fill:#38454c"/><path d="M979.69,320.24,792.93,212.16a56.75,56.75,0,0,0-56.9.08l-34.4,20L628.73,191a108.41,108.41,0,0,0-106.94-.46L20.62,467.11s-21.71,87,52.18,133.73c133.41,84.42,232.4,74.9,331.63,18l84.95-48.49c8.64,5.4,18.15,10.73,28.47,12.62,10.72,2,20.51-6.62,20.51-17.53,0-8.45-2.09-13.4-7.83-18.57l32.58-18.6L609.33,555a56.78,56.78,0,0,0,56.9-.08L979.77,372.87A30.41,30.41,0,0,0,979.69,320.24Z" style="fill:#293033;opacity:0.1"/><path d="M356.39,440.47V571.26l486-261.42a2.43,2.43,0,0,0,1.27-2.46L826.51,177Z" style="fill:#38454c"/><path d="M799.77,179.39,592.45,58.89,572.83,8.21c72,26.12,194.27,92.23,253.08,140.06a10.15,10.15,0,0,1-1.29,16.64Z" style="fill:#ff8426"/><path d="M826.53,235.14l22-17.41s22.21,47.35-4.75,91.12Z" style="fill:#ff6e00"/><path d="M561.6,7.62s21.07-8.83,39.65-1,157.43,90.94,163.3,94.85,3.94,27.88,3.94,27.88Z" style="fill:#38454c"/><path d="M811.62,145.13l-266.3,150L264,139.2,352,78,458.14,18a139.76,139.76,0,0,1,138.29.63Z" style="fill:#ff6e00"/><ellipse cx="730.1" cy="312.24" rx="85.51" ry="49.38" transform="matrix(0.52, -0.86, 0.86, 0.52, 85.3, 775.68)" style="fill:#38454c"/><path d="M737.74,414.32c-29.61-5.37-49-18.13-58.17-34.12L766.1,235.74c19.32,4.67,52.69,21.47,62.19,42.95Z" style="fill:#38454c"/><path d="M447,520v35.14L680.35,419.74a29.29,29.29,0,0,0,14.57-25.33V376.13Z" style="fill:#38454c"/><ellipse cx="360.91" cy="524.57" rx="85.73" ry="49.5" transform="translate(-274.71 562.22) rotate(-58.86)" style="fill:#37474f"/><path d="M371.48,627.1c-35.57-3.75-54.18-19.12-61.23-34.39L397,447.88c19.37,4.67,54.26,21.2,63.77,42.74Z" style="fill:#38454c"/><path d="M833.51,161.05l-42.94-17.7-358.24,222L539,196.84S307.93,168,244.74,146.71L63.91,326.78A199.24,199.24,0,0,0,6.17,458.61h0c0,18,0,44.77,13.47,65.75C43.15,569,93.88,601.75,160.11,627.7,192,646.18,287.55,632.38,319.44,612h0a18.39,18.39,0,0,0,8.6-15.66c.09-44.75,32.23-99.49,71.87-122.34s71.87-5.13,71.87,39.67V524L683.22,401.89a23.11,23.11,0,0,0,11.55-20h0c0-44.79,32.18-99.66,71.87-122.54s71.87-5.13,71.87,39.67q0,3.11-.21,6.29a3.91,3.91,0,0,0,4.5,4.11,1.77,1.77,0,0,0,1.42-1.76C844.48,294.51,846.34,183.53,833.51,161.05Z" style="fill:#ff6f00"/><path d="M747,202.35,817.89,160l-13.17,3.52A82.73,82.73,0,0,0,753,177.36c-10.89,7.3-22.88,15.17-29.41,18.95L372.25,400.55,435,293.89l.07,0c21.28-35.11,41.72-75.37,73.57-95.11,39-24.2,96.31-61.22,141.75-84.33,36.5-18.56,54.2-24.46,104.46-2.74L596.43,18.62A139.76,139.76,0,0,0,458.14,18L304.06,104.53A345.85,345.85,0,0,0,247,144.66c-2.62,2.27-7.65,8.61-13,15.81L73,332.71c-27.57,28.54-20.42,64.25,4.2,95.37,20.58,26,68,52.42,104.27,62.79,32.52,9.29,68.15,2.79,98.88-13.58l-8.83,9L568,309.22a6.07,6.07,0,0,1,8.85,3,14,14,0,0,0,1.45,2.93c4.61,7.12,11.71,7.52,20.86,1.6s13.91-17.58,9.31-24.7l-.05-.07a5.56,5.56,0,0,1,1.66-7.9l10.71-6.39h0s13.32-1.86,13.32,47.16c0,0,7.32-36.49-3.36-53.12l74.38-44.41a7.08,7.08,0,0,1,9.88,3c.19.34.39.68.61,1,4.61,7.13,11.71,7.52,20.86,1.61s13.91-17.59,9.31-24.71l0-.05A4.09,4.09,0,0,1,747,202.35Z" style="fill:#ff8c33"/><path d="M836.27,166c2.51,6,8.07,24.47,6,43.2l-12.23,7a5.25,5.25,0,0,1-7.86-4.56v-22c0-11.14,2.44-18.73,11.14-24.55A2,2,0,0,1,836.27,166Z" style="fill:#ff3d00"/><path d="M579.59,306.2c-2.45,3.58-2.39,6.11-2.39,6.11a1.92,1.92,0,0,0,2.88,1.66l25.29-14.64a5.14,5.14,0,0,0,2.56-4.44h0a5.86,5.86,0,0,0-7.78-5.51C592.24,292.07,585.37,297.76,579.59,306.2Z" style="fill:#38454c"/><path d="M716.92,222.36c-2.45,3.58-2.39,6.1-2.39,6.1a1.92,1.92,0,0,0,2.88,1.66l25.29-14.64a5.12,5.12,0,0,0,2.56-4.43h0a5.86,5.86,0,0,0-7.78-5.52C729.57,208.23,722.7,213.91,716.92,222.36Z" style="fill:#38454c"/><path d="M476.84,338.92c-5.82-3.56-12.48-7.13-18.95-8.28-12.53-2.24-24.81,4.18-24.81,16.91a26.6,26.6,0,0,0,12.83,22.39c9.18,5.77,19.53,12.91,30.93,16.42Z" style="fill:#ff6f00"/><path d="M731.31,143.79c-15.4-23.17-45.87-31.8-70.57-19-.6.32-1.18.63-1.73,1l-110.39,64c-20.14,11.67-52,32.6-65.18,51.79L413.93,359c-4.85,7.06,3.23,15.79,10.64,11.5L725.84,195.18A31.15,31.15,0,0,0,736.11,151Z" style="fill:#fff"/><path d="M742.08,157.25l-6.94-11.14c-15.62-25.11-48-34.91-74.28-21.37-.64.33-1.26.67-1.85,1L512.23,211.12C464,245.67,440,310.72,413.93,359c-4,5.76.7,12.64,6.57,12.64a8.07,8.07,0,0,0,4.07-1.14L733.74,190.77A24.07,24.07,0,0,0,742.08,157.25Zm-9.6,27.14L509.56,315c-10.52,6.1-24.76.32-35.82-4.73L463,305.38c-3.89-1.78-8.88-9.26-6.91-13.06,8.68-16.75,33.49-60.47,67.08-80.19l142.15-83.72c20.69-11.84,45.75-2.26,62,16.87l-2.58-2.67c2.43,14.63,1.66,36-.17,46.39l5-3.1c1.31-10.62,2.34-23.8.44-37.2q1.34,1.78,2.57,3.64c1.43,2.16,5.64,8.83,5.64,8.83C741.67,167.54,738.75,180.76,732.48,184.39Z" style="fill:#eceff1"/><path d="M844.58,230.25c-8.59,5.1-19.55,9.2-31.47,12.89l22.5-16.81a17.07,17.07,0,0,0,6.85-13.67h0A9.67,9.67,0,0,1,844.58,230.25Z" style="fill:#ff8c33"/><path d="M443.83,300c-10.61,20.38-20.12,40.9-29.9,59.06-4,5.76.7,12.64,6.57,12.64a8.07,8.07,0,0,0,4.07-1.14l63.79-37.09A334.69,334.69,0,0,1,443.83,300Z" style="fill:#37474f"/><path d="M449.34,337.86c-1,2.06-6.57,12.66-6.63,15-.23,9.21,9.32,13.69,17.6,17.74,13.22,6.46,29.35,9.05,37,8.59,11-.67,20.78-6.47,20.77-17.48h0c0-12.84-4.76-17.61-20-27.33A125.94,125.94,0,0,0,472.76,322C460.76,317.78,454,328.64,449.34,337.86Z" style="fill:#38454c"/><ellipse cx="404.49" cy="549.83" rx="85.73" ry="49.5" transform="translate(-275.29 611.71) rotate(-58.86)" style="fill:#38454c"/><ellipse cx="404.49" cy="549.83" rx="75.28" ry="43.47" transform="translate(-275.29 611.71) rotate(-58.86)" style="fill:#485960"/><ellipse cx="404.49" cy="549.83" rx="55.17" ry="31.86" transform="translate(-275.29 611.71) rotate(-58.86)" style="fill:#455a64"/><path d="M404.49,509.39c-19.79,11.41-35.83,38.76-35.83,61.1s16,31.18,35.83,19.77,35.83-38.76,35.83-61.09S424.27,498,404.49,509.39Zm19.14,8.53,4.27-3.5a3.37,3.37,0,0,1,4.87.66,20,20,0,0,1,2.56,4.94,7.62,7.62,0,0,1-5.41,10.05l-3.07,1a2.57,2.57,0,0,1-3.36-2.32,2.09,2.09,0,0,1,0-.24h0c0-.6,0-1.18-.05-1.74l0-.36a23.7,23.7,0,0,0-.88-5A3.35,3.35,0,0,1,423.63,517.92Zm-.93-9.24-.77.91a8,8,0,0,1-7.94,2.56,14.91,14.91,0,0,0-7.68,0C412.36,508.92,418,507.85,422.7,508.68Zm-49.82,60c0-.11,0-.21,0-.32a55.52,55.52,0,0,1,3-17.07,36.09,36.09,0,0,0-.41,5.23v0h0c0,.43,0,.85,0,1.27a25.83,25.83,0,0,0,.46,4,6.2,6.2,0,0,1-1.28,4.68Zm13.21,6.86-1,5c-.88,4.55-7.05,5.63-9.26,1.55l-.39-.79a5.34,5.34,0,0,1,.15-4.86l1.92-3.47a3.42,3.42,0,0,1,4.54-1.35,11,11,0,0,0,2.48,1.14A2.49,2.49,0,0,1,386.09,575.57ZM405,586.34l0,0a34.49,34.49,0,0,1-9,3.77,3.8,3.8,0,0,1-4.68-4.39L393,577a8.43,8.43,0,0,1,4.63-6l.1,0,.69-.36c.35-.18.69-.37,1-.58a3.48,3.48,0,0,1,5.1,2.1l2.37,8.7A4.56,4.56,0,0,1,405,586.34Zm18.7-17.86a72.87,72.87,0,0,1-5.8,7.19,3.49,3.49,0,0,1-5.82-1.2l-3.3-8.93a4,4,0,0,1,.66-3.85c.94-1,1.86-2.13,2.73-3.27a2.64,2.64,0,0,1,3.48-.47l7.06,4.86A4,4,0,0,1,423.7,568.48Zm8.76-16a5.71,5.71,0,0,1-8.52,2.6l-2.91-2a5.29,5.29,0,0,1-1.86-6.39c.74-1.65,1.4-3.31,2-5a4.84,4.84,0,0,1,3.46-2.87l6.93-1.49a3.61,3.61,0,0,1,4.32,4.22A67.54,67.54,0,0,1,432.46,552.51Z" style="fill:#7b8e98"/><path d="M328.64,457.19c-7.86,44.31-30.61,69.63-67.38,82-37.87,12.72-74.09,1-84.28-1.56-46.65-11.82-114.28-51-143.44-98.79-2.64-4.32-28.86-39.69,8.83-83.15l1.92.17a3.2,3.2,0,0,1,2.49,4.81c-3.93,6.4-8.14,18.94-5.08,34.92,3.73,19.42,9.63,24.71,21.26,38,11.36,13,67.29,72,143.88,76.31,25.16,1.41,71.36-3.46,98-22.08C321.08,476.38,320.15,476,328.64,457.19Z" style="fill:#ff8c33"/><path d="M281.1,550.64c-25.13,12.12-59.37,16-81.51,15.44a3.45,3.45,0,0,0-3.53,3.47v11.79A19.62,19.62,0,0,0,216.17,601a114.57,114.57,0,0,0,33.22-5.77l.27-.09a45.11,45.11,0,0,0,30.07-34.71Q280.6,555.57,281.1,550.64Z" style="fill:#38454c"/><path d="M322.26,559.59c-8.67,5.91-20.1,13.76-32.63,22.53-27.13,19-74.23,24-99.89,22.51-78.1-4.38-148-79.55-159.6-92.78-11.86-13.52-17.88-18.91-21.68-38.71-.4-2.12-2.28-7.33-2-8.81-16.81,34.58,4.34,64.18,6.6,67.88,29.73,48.69,98.69,85.42,146.25,97.47,10.39,2.64,47.32,14.57,85.94,1.59,32.92-11.06,64.79-46.09,81.47-66.88A3.31,3.31,0,0,0,322.26,559.59Z" style="fill:#ff6e00"/><path d="M256.83,603.31c-39.23,12.26-76.48.59-87-2-48.95-12-119.91-48.79-150.5-97.47-1.83-2.91-15.82-19.21-12.85-42.93-8.12,30.73,7.48,52.33,9.56,55.74,29.73,48.68,98.68,85.42,146.25,97.47,9.12,2.31,38.68,11.78,71.89,5.29a34,34,0,0,0,22.62-16Z" style="fill:#ff8c33"/><path d="M196.9,498.82c-81.74-13.38-120.09-59.3-130.09-70.71-1.34-1.53-2.58-2.94-3.78-4.29L63,424a35.24,35.24,0,0,0,4.86,33.74c19.3,25.63,50.56,46.65,88.6,55.58a40,40,0,0,0,40.47-14.48Z" style="fill:#38454c"/><path d="M153.92,554.46A343.49,343.49,0,0,1,53.25,495a3.43,3.43,0,0,0-5.65,2.61v26.27a6.78,6.78,0,0,0,2.21,5c27.53,25,63.85,43.89,103.77,60.35a3.43,3.43,0,0,0,4.75-3.17V560.83A6.78,6.78,0,0,0,153.92,554.46Z" style="fill:#fff"/><path d="M64.07,508.25q-5.28-4-10.24-8.31a1.71,1.71,0,0,0-2.83,1.3V522a7.75,7.75,0,0,0,2.62,5.79c3.39,3,7,5.93,10.69,8.73a1.72,1.72,0,0,0,2.75-1.37V514.35A7.65,7.65,0,0,0,64.07,508.25Z" style="fill:#2979ff"/><path d="M438.28,237.68c-50.14-36.47-114.7-75.43-165.66-94.52a15.41,15.41,0,0,0-17.47,4.91L148.78,266.92a29.67,29.67,0,0,0-4.52,33.26c14.28,27.77,41.61,35.28,72.54,51.47,45.47,23.81,97.93,49.69,137.51,40.75l16.06-16.85,72-116.5A16,16,0,0,0,438.28,237.68Z" style="fill:#fff"/><path d="M444.5,246.62c-1.07-5.35-5.71-8.56-6.22-8.94-50.14-36.47-114.7-75.43-165.66-94.52a15.05,15.05,0,0,0-5.35-1,15.48,15.48,0,0,0-12.12,5.88c-34.5,29.22-83.6,86.89-113.75,123.68a28.93,28.93,0,0,0-2.13,33.78c26,41.22,79,73.81,161.07,97.13a62.28,62.28,0,0,0,70-27.11l72.47-117A18.68,18.68,0,0,0,444.5,246.62Zm-9.94,15.23L366.14,371.93a44.47,44.47,0,0,1-57.8,11.42l-145.55-82.6a23.59,23.59,0,0,1-5.67-36.1,660.36,660.36,0,0,1,97.56-108l.1-.11s2.87-2.87,4.7-3.53a10.84,10.84,0,0,1,7.53,0,470.55,470.55,0,0,1,47.73,21.41,10.18,10.18,0,0,0-3.69,2.73l-5.17,6.2a8.33,8.33,0,0,0,2.21,12.54l29.79,17.31a10.89,10.89,0,0,0,13.84-2.44l4.87-5.82a8.3,8.3,0,0,0,1.86-6.33c23.59,14.06,48.35,30.32,73.1,48.32A11.27,11.27,0,0,1,434.56,261.85Z" style="fill:#eceff1"/><path d="M309.14,393.74c-72.8-31.46-115.13-55.24-161-95.23-9.47-8.25-8.31-22.27-2.81-31.51l-3.9,4.75a28.93,28.93,0,0,0-2.13,33.78c26,41.22,79,73.81,161.07,97.13a62.25,62.25,0,0,0,69.42-26.21C354.07,393.64,331.09,403.23,309.14,393.74Z" style="fill:#37474f"/><path d="M807.68,143.63s16.08,4.59,11.16-.66c0,0,14.25,8.59,14.67,18.08l-44.22-7.58Z" style="fill:#ff6e00"/><ellipse cx="771.78" cy="337.25" rx="85.73" ry="49.5" transform="translate(84.02 823.43) rotate(-58.86)" style="fill:#38454c"/><ellipse cx="771.78" cy="337.25" rx="75.28" ry="43.47" transform="translate(84.02 823.43) rotate(-58.86)" style="fill:#485960"/><ellipse cx="771.78" cy="337.25" rx="55.17" ry="31.86" transform="translate(84.02 823.43) rotate(-58.86)" style="fill:#455a64"/><path d="M771.78,296.82C752,308.22,736,335.58,736,357.91s16,31.18,35.83,19.77,35.83-38.76,35.83-61.09S791.57,285.41,771.78,296.82Zm19.15,8.52,4.26-3.5a3.37,3.37,0,0,1,4.87.66,20.39,20.39,0,0,1,2.57,4.94,7.63,7.63,0,0,1-5.42,10.06l-3.07,1a2.61,2.61,0,0,1-2.25-.34,2.58,2.58,0,0,1-1.11-2v-.24c0-.6,0-1.18-.06-1.75,0-.12,0-.24,0-.36a23,23,0,0,0-.89-5A3.34,3.34,0,0,1,790.93,305.34ZM790,296.1l-.76.92a8,8,0,0,1-8,2.55,14.91,14.91,0,0,0-7.68,0C779.65,296.35,785.26,295.27,790,296.1Zm-49.82,60c0-.11,0-.21,0-.32a55.85,55.85,0,0,1,3-17.07,36.49,36.49,0,0,0-.41,5.26c0,.44,0,.86,0,1.28a25.8,25.8,0,0,0,.47,4,6.29,6.29,0,0,1-1.28,4.68ZM753.38,363l-1,5a5,5,0,0,1-9.25,1.55c-.14-.26-.27-.52-.4-.78a5.34,5.34,0,0,1,.15-4.86l1.93-3.48a3.4,3.4,0,0,1,4.53-1.34,11.67,11.67,0,0,0,2.49,1.13A2.49,2.49,0,0,1,753.38,363Zm18.92,10.76,0,0a34.68,34.68,0,0,1-9,3.77,3.8,3.8,0,0,1-4.68-4.39l1.68-8.75a8.5,8.5,0,0,1,4.63-6l.11-.05.68-.36c.35-.18.7-.37,1-.58a3.49,3.49,0,0,1,5.11,2.11l2.36,8.69A4.57,4.57,0,0,1,772.3,373.76ZM791,355.9a72.87,72.87,0,0,1-5.8,7.19,3.49,3.49,0,0,1-5.82-1.2L776.08,353a4,4,0,0,1,.66-3.85c.94-1,1.85-2.13,2.72-3.27a2.64,2.64,0,0,1,3.48-.47l7.07,4.87A4,4,0,0,1,791,355.9Zm8.76-16a5.7,5.7,0,0,1-8.51,2.6l-2.92-2a5.29,5.29,0,0,1-1.85-6.39c.73-1.64,1.39-3.31,2-5a4.85,4.85,0,0,1,3.45-2.87l6.93-1.49a3.61,3.61,0,0,1,4.32,4.23A66.45,66.45,0,0,1,799.75,339.93Z" style="fill:#7b8e98"/><path d="M262.75,394.17l-3.6-9.78a11.06,11.06,0,0,0-4.62-5.62l-77.18-46.7a11.38,11.38,0,0,0-10.3-.53l-6.65,2.32-20.56,18.4,101.72,65Z" style="fill:#ff8c33"/><polygon points="258.06 382.39 196.13 437.15 261.88 392.69 258.06 382.39" style="fill:#ff6f00"/><path d="M218.44,572.3c-5.29-3.06-9.59-.69-9.59,5.29s4.3,13.29,9.59,16.34,9.59.69,9.59-5.29S223.73,575.35,218.44,572.3Z" style="fill:#fff"/><path d="M14.51,429.67C2.41,466.83,18.68,492,21,495.78c1.31,2.14,2.5,3.94,3.66,5.57a6.56,6.56,0,0,0,11.9-3.82V478.17C32.86,473.53,12.53,451.92,14.51,429.67Z" style="fill:#38454c"/><ellipse cx="114.61" cy="468.84" rx="11.5" ry="19.91" transform="translate(-225.93 126.82) rotate(-31.14)" style="fill:#ff8c33"/><path d="M114.61,458c-5.28-3-9.56-.68-9.56,5.28s4.28,13.26,9.56,16.31,9.56.68,9.56-5.28S119.89,461.09,114.61,458Z" style="fill:#38454c"/><path d="M200.35,526.68a2.76,2.76,0,0,1-1.63-2.42,2.75,2.75,0,0,0,1.84,2.59l1.76.57Z" style="fill:#ffb726"/><path d="M47.1,439.34a2.36,2.36,0,0,0,3.78-.09c5.32-7.52,20.53-29.8,23.32-42.52,3.39-15.46,8.81-67.42,1.27-77.06S43.85,337.53,36.25,358C28.82,377.93,21.19,405.56,47.1,439.34Z" style="fill:#fff"/><polygon points="179.19 521.36 207.7 485.07 241.4 482.48 196.47 531.73 179.19 521.36" style="fill:#ff8c33"/><path d="M80,340.68C55.1,375.2,50.58,409.16,49.57,442.73l5.88,7.33c5-24.28,13.46-43.27,27-60.06Z" style="fill:#ff8c33"/><path d="M201.33,527.11a4.09,4.09,0,0,1-2.45-5.58c4.58-9.88,17.38-34.95,33-43.84,36.87-20.95,82.29-30.86,91.79-27.62,13.67,4.67-8.07,42.08-28.06,58.29C276.22,524.09,248.4,542.9,201.33,527.11Z" style="fill:#ff6f00"/><path d="M200.56,526.85a2.78,2.78,0,0,1-1.32-4.26c6.4-8.78,25.59-34.18,38.76-42.08,16-9.61,72.09-35.24,85.7-30.44s-8.07,42.08-28.06,58.29C276.12,524.18,248.09,543.11,200.56,526.85Z" style="fill:#fff"/><path d="M293.67,489.86c-3.24-10.63-17-15.85-30.8-11.65a33,33,0,0,0-7.77,3.53c13.37-3.56,26.48,1.63,29.63,11.95,2.57,8.44-2.3,17.74-11.3,23.33.4-.11.79-.19,1.18-.31C288.38,512.51,296.92,500.49,293.67,489.86Z" style="fill:#eceff1"/><path d="M236.49,508.4c.88,2.9-1.44,6.17-5.19,7.31s-7.5-.28-8.38-3.17,1.44-6.16,5.19-7.3S235.61,505.51,236.49,508.4Z" style="fill:#eceff1"/><path d="M60.58,371.09c.83-1.5,1.68-3,2.53-4.49-2.7-6.42-7-10.61-11.85-10.61-8.16,0-14.78,11.77-14.78,26.28a44.29,44.29,0,0,0,1,9.51c.29-14,6.78-25.28,14.75-25.28C55.34,366.5,58.21,368.2,60.58,371.09Z" style="fill:#eceff1"/><path d="M617.7,155.7l-33.87,17.1c8.92,26.59,11.79,65.78,8.12,100.38l37.46-21.72C632,222.72,619.86,190.39,617.7,155.7Z" style="fill:#eceff1"/><path d="M617.7,155.7l-22.58,13.82c9.17,29.15,12.41,62.42,8.73,97l25.6-15.09C632.06,222.7,626.65,184.25,617.7,155.7Z" style="fill:#37474f"/><g style="isolation:isolate"><g style="clip-path:url(#clip-path)"><path d="M26.8,468.92c-3.3-2-5.59,1.41-5.14,7.62s3.49,12.85,6.79,14.86,5.6-1.41,5.14-7.61-3.49-12.87-6.79-14.87" style="fill:#fff"/></g></g><path d="M151.34,584.54l-14.52-6.28a4.28,4.28,0,0,1-2.58-3.93V552.71a1.71,1.71,0,0,1,2.39-1.57l14.52,6.28a4.28,4.28,0,0,1,2.59,3.93V583A1.72,1.72,0,0,1,151.34,584.54Z" style="fill:#2979ff"/><g style="isolation:isolate"><path d="M609.51,66.36,559.06,37.23c-6.17-3.56-16.13-3.56-22.25,0L486.67,66.37c-6.12,3.55-6.08,9.32.08,12.88l50.46,29.13c6.16,3.56,16.12,3.56,22.24,0l50.14-29.13c6.12-3.56,6.09-9.33-.08-12.89" style="fill:#fafbfc"/></g><path d="M630.47,85.2A8.25,8.25,0,0,0,628.29,80v0l-.16-.16c-.06-.07-.14-.14-.2-.22l-27.52-29a4.82,4.82,0,0,0-1.5-1.27L517.29,2.23a11.29,11.29,0,0,0-10.25,0,4.71,4.71,0,0,0-1.66,1.54h0l-28,34.6h.07a7.88,7.88,0,0,0-1.87,5h0v5.47h0c0,3,2,6,6,8.32l93.48,54c8,4.62,20.93,4.62,28.88,0l20.64-12c4-2.31,6-5.34,5.94-8.37h0V85.3h0v-.1Z" style="fill:#38454c"/><path d="M481.84,36.68l25-31.41a5.44,5.44,0,0,1,7-1.32L595.18,50.8a5.44,5.44,0,0,1,2.54,6.14L586.89,97a5.45,5.45,0,0,1-8,3.28l-95.54-55.5A5.44,5.44,0,0,1,481.84,36.68Z" style="fill:#485960"/><g style="isolation:isolate"><path d="M532.8,28.6l4-3.78-1.42,5.28-2.59-1.5m6.8-5.81-2.35-1.36-11.47,10.3L528,33l2.91-2.68,3.77,2.18-1,3.8,2.24,1.3,3.61-14.84" style="fill:#fff"/><path d="M553.15,30.62l-2.23-1.3-4.71,7.85c-1,1.59-2.37,2.13-3.8,1.31s-1.64-2.31-.68-3.9l4.71-7.84-2.24-1.29-4.7,7.84c-1.79,3-1.37,5.88,1.5,7.54s5.66.6,7.45-2.37l4.7-7.84" style="fill:#fff"/><polyline points="561.72 35.56 554.28 31.27 552.92 33.55 555.52 35.05 549.34 45.33 551.59 46.63 557.76 36.34 560.35 37.84 561.72 35.56" style="fill:#fff"/><path d="M561.62,49.55c-2-1.15-2.4-3.73-1-6.14s3.93-3.32,5.94-2.16,2.37,3.77.95,6.14-3.94,3.32-5.94,2.16M568,38.88c-3.41-2-7.49-.48-9.69,3.18s-1.55,7.89,1.87,9.86,7.45.51,9.68-3.19,1.55-7.88-1.86-9.85" style="fill:#fff"/></g><g style="isolation:isolate"><polyline points="517.73 32.39 508.86 27.27 497.15 46.78 506.24 52.03 508.36 48.52 502.73 45.27 505.51 40.64 510.14 43.31 512.23 39.83 507.6 37.16 510.21 32.81 515.61 35.93 517.73 32.39" style="fill:#fff"/><path d="M528.72,38.23c-5.2-3-11.62-.81-15.07,4.93s-2.48,12.2,2.92,15.31a9.43,9.43,0,0,0,6.37,1.21l1.08-4a8.53,8.53,0,0,1-5.25-.88C515.65,53,515,49,517.27,45.25s6.11-5.14,9.23-3.33a7.91,7.91,0,0,1,3.21,3.94L532.77,43a9,9,0,0,0-4-4.75" style="fill:#fff"/><path d="M534,63.58c-3.11-1.8-3.72-5.8-1.48-9.53s6.1-5.15,9.21-3.35,3.69,5.84,1.48,9.52-6.1,5.15-9.21,3.36M543.92,47c-5.3-3.06-11.63-.75-15,4.94s-2.4,12.24,2.89,15.3,11.6.8,15.05-4.94,2.4-12.24-2.9-15.3" style="fill:#fff"/><polyline points="558.6 55.98 555.12 53.97 543.41 73.49 552.51 78.74 554.63 75.2 549.01 71.96 558.6 55.98" style="fill:#fff"/><polyline points="574.84 65.36 565.97 60.24 554.26 79.75 563.36 85 565.47 81.49 559.84 78.24 562.62 73.61 567.26 76.29 569.35 72.81 564.71 70.13 567.32 65.78 572.72 68.9 574.84 65.36" style="fill:#fff"/></g><g style="opacity:0.1"><path d="M643.83,561.1a41.95,41.95,0,0,1-39.61-28.19L527.4,311.21a56.14,56.14,0,0,1,25-67L857.19,68.89a41.9,41.9,0,0,1,60.5,22.66l80,232.06a42,42,0,0,1-18.62,49.92L664.8,555.45A41.8,41.8,0,0,1,643.83,561.1ZM878.07,88.31a16.91,16.91,0,0,0-8.41,2.25L564.89,265.9A31.12,31.12,0,0,0,551,303l76.82,221.7a16.9,16.9,0,0,0,24.43,9.1l314.3-181.93a16.93,16.93,0,0,0,7.5-20.13l-80-232.06a16.87,16.87,0,0,0-16-11.39Z" style="fill:#293033"/></g><path d="M658.53,544.63l314.3-181.92a29.39,29.39,0,0,0,13.06-35l-80-232.07a29.39,29.39,0,0,0-42.45-15.89L558.66,255.06a43.58,43.58,0,0,0-19.45,52.05L616,528.82A29.39,29.39,0,0,0,658.53,544.63Z" style="fill:#feddec"/><path d="M624.21,485.22a58.69,58.69,0,0,1,18.21-15.91c10-5.75,16-6.37,21.34-6.92,5.13-.53,9.55-1,17.67-5.68s11.33-8.63,15-13.21a59,59,0,0,1,18.21-15.92c10-5.74,16-6.37,21.35-6.92,5.12-.52,9.54-1,17.66-5.67s11.33-8.63,15-13.21A58.83,58.83,0,0,1,787,385.86c9.95-5.74,16-6.37,21.34-6.92,5.13-.52,9.56-1,17.67-5.67s11.33-8.64,15-13.22c3.88-4.76,8.27-10.17,18.22-15.91s16-6.37,21.34-6.93c5.13-.52,9.55-1,17.67-5.67s11.33-8.63,15-13.21a58.83,58.83,0,0,1,18.21-15.92c10-5.74,16-6.37,21.34-6.92,5.13-.52,9.55-1,17.67-5.67.68-.39,1.32-.78,1.93-1.17l-7.24-21c-.64.4-1.3.8-2,1.2-10,5.74-16,6.36-21.34,6.91-5.13.53-9.56,1-17.67,5.67s-11.33,8.64-15.05,13.22a58.83,58.83,0,0,1-18.21,15.92c-9.95,5.74-16,6.36-21.35,6.92-5.12.53-9.55,1-17.66,5.67s-11.33,8.64-15,13.21a59,59,0,0,1-18.22,15.93c-9.95,5.74-16,6.36-21.34,6.91-5.13.53-9.55,1-17.67,5.67s-11.33,8.64-15,13.22A58.76,58.76,0,0,1,746.4,394c-9.95,5.74-16,6.36-21.35,6.91-5.12.53-9.56,1-17.67,5.68s-11.32,8.64-15,13.21a58.7,58.7,0,0,1-18.21,15.92c-10,5.75-16,6.36-21.34,6.92-5.13.53-9.56,1-17.67,5.67s-11.33,8.64-15,13.21a58.64,58.64,0,0,1-18.2,15.92c-1.07.62-2.08,1.16-3,1.66l7.26,21c1-.49,2-1,3.08-1.66C617.28,493.75,620.49,489.8,624.21,485.22Z" style="fill:none"/><path d="M615,458.75a58.83,58.83,0,0,1,18.21-15.92c9.95-5.74,16-6.37,21.34-6.92,5.13-.53,9.55-1,17.67-5.67s11.33-8.64,15-13.22c3.88-4.77,8.26-10.17,18.22-15.91s16-6.37,21.34-6.92c5.12-.53,9.55-1,17.67-5.68s11.32-8.64,15-13.21a58.69,58.69,0,0,1,18.21-15.91c9.95-5.75,16-6.37,21.34-6.93,5.13-.53,9.56-1,17.67-5.67s11.33-8.64,15-13.21c3.88-4.77,8.27-10.18,18.22-15.92s16-6.37,21.35-6.92c5.12-.53,9.54-1,17.66-5.67s11.33-8.64,15-13.22a58.69,58.69,0,0,1,18.21-15.91c10-5.75,16-6.37,21.34-6.92,5.12-.53,9.55-1,17.67-5.68.71-.41,1.37-.81,2-1.21l-7.24-21c-.67.41-1.35.83-2.07,1.24-10,5.75-16,6.37-21.34,6.93-5.13.53-9.56,1-17.67,5.67s-11.33,8.64-15.05,13.21a58.83,58.83,0,0,1-18.21,15.92c-10,5.74-16,6.37-21.35,6.92-5.12.53-9.55,1-17.66,5.67s-11.32,8.64-15,13.21a58.76,58.76,0,0,1-18.22,15.92c-10,5.75-16,6.37-21.34,6.92-5.13.54-9.55,1-17.67,5.68s-11.33,8.64-15,13.21a59,59,0,0,1-18.21,15.92c-10,5.74-16,6.37-21.35,6.92-5.12.53-9.55,1-17.67,5.67s-11.32,8.64-15,13.21a58.83,58.83,0,0,1-18.21,15.92c-9.95,5.74-16,6.37-21.34,6.92-5.13.53-9.56,1-17.67,5.67s-11.33,8.64-15,13.22c-3.88,4.76-8.26,10.17-18.22,15.91-1,.61-2,1.14-3,1.64l7.27,21c1-.49,2-1,3.05-1.65C608.06,467.28,611.27,463.32,615,458.75Z" style="fill:none"/><path d="M983.49,320.71c-.6.37-1.21.74-1.85,1.11-9.95,5.74-16,6.37-21.35,6.91-5.12.53-9.55,1-17.66,5.67s-11.33,8.64-15,13.22a58.83,58.83,0,0,1-18.21,15.92c-10,5.74-16,6.36-21.35,6.92-5.12.53-9.55,1-17.66,5.67s-11.33,8.64-15,13.21c-3.88,4.77-8.27,10.18-18.22,15.92s-16,6.37-21.34,6.92c-5.13.53-9.55,1-17.67,5.67s-11.33,8.64-15.05,13.22A58.76,58.76,0,0,1,764.84,447c-10,5.74-16,6.37-21.35,6.91-5.12.53-9.56,1-17.67,5.67s-11.32,8.64-15,13.22a58.83,58.83,0,0,1-18.21,15.92c-10,5.74-16,6.36-21.34,6.91-5.13.54-9.56,1-17.67,5.68s-11.33,8.64-15,13.21a58.64,58.64,0,0,1-18.2,15.92c-1,.59-2,1.12-2.95,1.61a29.39,29.39,0,0,0,41.17,12.59l314.3-181.92a29.39,29.39,0,0,0,13.06-35Z" style="fill:none"/><path d="M633.43,511.7a58.82,58.82,0,0,1,18.21-15.91c10-5.75,16-6.37,21.34-6.92,5.13-.53,9.55-1,17.67-5.67s11.33-8.64,15-13.22c3.88-4.77,8.26-10.17,18.21-15.91s16-6.37,21.35-6.92c5.12-.53,9.55-1,17.67-5.68s11.32-8.64,15-13.21a58.69,58.69,0,0,1,18.21-15.91c10-5.75,16-6.38,21.34-6.93,5.13-.53,9.56-1,17.67-5.67s11.33-8.64,15-13.21c3.88-4.77,8.27-10.18,18.22-15.92s16-6.37,21.34-6.92c5.13-.53,9.55-1,17.67-5.68s11.33-8.64,15-13.21a58.69,58.69,0,0,1,18.21-15.91c9.95-5.75,16-6.37,21.34-6.93,5.12-.53,9.55-1,17.67-5.67.65-.38,1.27-.75,1.86-1.12l-7.24-21c-.62.39-1.26.77-1.92,1.15-9.95,5.75-16,6.37-21.34,6.92-5.13.53-9.56,1-17.67,5.68s-11.33,8.64-15,13.21a58.83,58.83,0,0,1-18.21,15.92c-9.95,5.74-16,6.37-21.35,6.92-5.12.53-9.55,1-17.66,5.67s-11.33,8.64-15,13.21a58.76,58.76,0,0,1-18.22,15.92c-10,5.75-16,6.37-21.34,6.92-5.13.53-9.55,1-17.67,5.68s-11.33,8.64-15,13.21a58.88,58.88,0,0,1-18.22,15.91c-10,5.75-16,6.37-21.34,6.93-5.12.53-9.55,1-17.67,5.67s-11.32,8.64-15,13.21a58.83,58.83,0,0,1-18.21,15.92c-10,5.74-16,6.37-21.34,6.92-5.13.53-9.56,1-17.67,5.67S633,483.46,629.3,488A59,59,0,0,1,611.08,504c-1.07.62-2.09,1.17-3.08,1.68l7.27,21c1-.49,2-1,3.12-1.68C626.5,520.23,629.71,516.28,633.43,511.7Z" style="fill:none"/><path d="M568.89,326.34a59,59,0,0,1,18.21-15.91c9.95-5.74,16-6.37,21.34-6.92,5.13-.53,9.55-1,17.67-5.67s11.33-8.64,15-13.22a58.88,58.88,0,0,1,18.22-15.91c10-5.75,16-6.37,21.34-6.92,5.12-.53,9.55-1,17.67-5.68s11.33-8.63,15-13.21A58.69,58.69,0,0,1,731.63,227c10-5.75,16-6.37,21.34-6.93,5.13-.52,9.56-1,17.67-5.67s11.33-8.63,15.05-13.21a58.7,58.7,0,0,1,18.21-15.92c10-5.75,16-6.37,21.35-6.92,5.12-.53,9.54-1,17.66-5.67S854.24,164,858,159.45a58.69,58.69,0,0,1,18.21-15.91c10-5.75,16-6.37,21.34-6.92,5.13-.53,9.55-1,17.67-5.68.85-.49,1.63-1,2.37-1.44l-7.24-21c-.77.49-1.57,1-2.43,1.47-10,5.75-16,6.36-21.34,6.92-5.13.53-9.56,1-17.67,5.67s-11.33,8.64-15,13.21a58.64,58.64,0,0,1-18.2,15.92c-10,5.75-16,6.37-21.36,6.92-5.12.53-9.55,1-17.66,5.67s-11.32,8.64-15,13.21a58.89,58.89,0,0,1-18.22,15.93c-10,5.74-16,6.36-21.34,6.91-5.13.53-9.55,1-17.67,5.68s-11.33,8.64-15,13.21c-3.88,4.77-8.26,10.18-18.21,15.92s-16,6.37-21.35,6.92c-5.12.53-9.55,1-17.67,5.67s-11.32,8.64-15,13.21a58.7,58.7,0,0,1-18.21,15.92c-9.95,5.75-16,6.37-21.34,6.92-5.13.53-9.56,1-17.67,5.67s-11.33,8.64-15,13.22c-3.88,4.76-8.26,10.17-18.21,15.92-1,.56-1.92,1.07-2.83,1.54l7.27,21c.9-.46,1.85-1,2.86-1.55C562,334.88,565.18,330.93,568.89,326.34Z" style="fill:none"/><path d="M559.67,299.87A58.7,58.7,0,0,1,577.88,284c10-5.75,16-6.37,21.34-6.92,5.13-.53,9.55-1,17.67-5.67s11.33-8.64,15.05-13.21a58.64,58.64,0,0,1,18.2-15.92c10-5.75,16-6.37,21.35-6.92,5.12-.53,9.55-1,17.67-5.67s11.32-8.64,15-13.22a59,59,0,0,1,18.21-15.92c10-5.74,16-6.36,21.34-6.91,5.13-.53,9.56-1,17.67-5.67s11.33-8.64,15.05-13.22a58.7,58.7,0,0,1,18.21-15.92c10-5.75,16-6.37,21.35-6.92,5.12-.53,9.55-1,17.67-5.67s11.32-8.64,15-13.22A59,59,0,0,1,867,117.05c9.95-5.74,16-6.36,21.34-6.91,5.13-.53,9.55-1,17.67-5.67.87-.51,1.68-1,2.45-1.49l-2.54-7.36a29.18,29.18,0,0,0-7.68-11.86c-9.67,5.49-15.62,6.12-20.87,6.66s-9.56,1-17.67,5.67-11.33,8.64-15,13.22c-3.88,4.76-8.26,10.17-18.22,15.91s-16,6.37-21.34,6.93c-5.13.53-9.55,1-17.67,5.66s-11.32,8.64-15,13.22A58.89,58.89,0,0,1,754.12,167c-10,5.74-16,6.37-21.34,6.92-5.12.53-9.55,1-17.67,5.67s-11.33,8.64-15,13.21a58.83,58.83,0,0,1-18.21,15.92c-10,5.74-16,6.37-21.35,6.92-5.12.53-9.55,1-17.66,5.67s-11.33,8.64-15.05,13.22a58.69,58.69,0,0,1-18.21,15.91c-10,5.75-16,6.37-21.34,6.92-5.12.53-9.56,1-17.67,5.68s-11.33,8.64-15,13.21c-3.88,4.77-8.26,10.17-18.21,15.91l-.52.29a43.44,43.44,0,0,0,2.4,14.71l2.6,7.51c.89-.46,1.83-1,2.82-1.54C552.74,308.4,556,304.44,559.67,299.87Z" style="fill:none"/><path d="M587.33,379.3a58.82,58.82,0,0,1,18.21-15.91c10-5.75,16-6.37,21.34-6.92,5.13-.53,9.55-1,17.67-5.67s11.33-8.64,15-13.22c3.88-4.77,8.26-10.17,18.21-15.91s16-6.37,21.35-6.92c5.12-.53,9.55-1,17.67-5.68s11.32-8.63,15-13.21a58.83,58.83,0,0,1,18.21-15.92c9.95-5.74,16-6.37,21.34-6.92,5.13-.52,9.56-1,17.67-5.67s11.33-8.63,15-13.21c3.88-4.77,8.27-10.18,18.22-15.92s16-6.37,21.34-6.92c5.13-.53,9.55-1,17.67-5.68s11.33-8.63,15-13.21a58.69,58.69,0,0,1,18.21-15.91c9.95-5.75,16-6.37,21.34-6.93,5.13-.52,9.55-1,17.67-5.67.79-.46,1.52-.9,2.23-1.35l-7.24-21c-.73.46-1.49.92-2.29,1.38-10,5.74-16,6.36-21.34,6.91-5.13.53-9.56,1-17.67,5.68s-11.33,8.64-15,13.21a58.64,58.64,0,0,1-18.2,15.92c-10,5.75-16,6.37-21.36,6.92-5.12.53-9.55,1-17.66,5.67s-11.32,8.64-15,13.21a58.89,58.89,0,0,1-18.22,15.93c-9.95,5.74-16,6.36-21.34,6.91-5.13.53-9.55,1-17.67,5.68s-11.33,8.64-15,13.21c-3.88,4.77-8.26,10.18-18.21,15.92s-16,6.36-21.35,6.92c-5.12.53-9.55,1-17.67,5.67s-11.32,8.64-15,13.21a58.7,58.7,0,0,1-18.21,15.92c-10,5.75-16,6.37-21.34,6.92-5.13.53-9.56,1-17.67,5.67s-11.33,8.64-15,13.21c-3.88,4.77-8.26,10.18-18.21,15.93-1,.58-2,1.09-2.9,1.58l7.27,21c.92-.47,1.89-1,2.93-1.59C580.4,387.83,583.61,383.88,587.33,379.3Z" style="fill:none"/><path d="M578.11,352.83a58.7,58.7,0,0,1,18.21-15.92c9.95-5.75,16-6.37,21.34-6.92,5.13-.53,9.55-1,17.67-5.67s11.33-8.64,15-13.21a58.77,58.77,0,0,1,18.2-15.93c9.95-5.74,16-6.36,21.35-6.91,5.12-.53,9.55-1,17.67-5.67s11.32-8.64,15-13.22a58.83,58.83,0,0,1,18.21-15.92c9.95-5.74,16-6.36,21.34-6.91,5.13-.53,9.56-1,17.67-5.68s11.33-8.64,15-13.21a58.7,58.7,0,0,1,18.21-15.92c10-5.75,16-6.37,21.35-6.92,5.12-.53,9.55-1,17.67-5.67s11.32-8.64,15-13.22A59,59,0,0,1,885.39,170c10-5.74,16-6.36,21.34-6.91,5.13-.53,9.55-1,17.67-5.67.82-.48,1.58-.94,2.3-1.4l-7.24-21c-.75.47-1.53.95-2.36,1.43-10,5.74-16,6.37-21.34,6.92-5.13.53-9.56,1-17.67,5.67s-11.33,8.64-15,13.21a59,59,0,0,1-18.22,15.92c-10,5.74-16,6.37-21.35,6.92-5.12.54-9.54,1-17.66,5.67s-11.32,8.64-15,13.22a58.89,58.89,0,0,1-18.22,15.92c-9.95,5.74-16,6.37-21.34,6.92-5.13.53-9.55,1-17.67,5.67s-11.33,8.64-15,13.21a59,59,0,0,1-18.21,15.92c-9.95,5.74-16,6.37-21.35,6.92-5.12.53-9.55,1-17.66,5.67s-11.33,8.64-15,13.22A58.82,58.82,0,0,1,628,303.35c-9.95,5.75-16,6.37-21.34,6.92-5.13.53-9.56,1-17.67,5.67s-11.33,8.64-15,13.22c-3.88,4.77-8.26,10.17-18.21,15.91-1,.58-1.94,1.09-2.86,1.56l7.26,21c.92-.47,1.88-1,2.9-1.58C571.18,361.36,574.39,357.4,578.11,352.83Z" style="fill:none"/><path d="M596.55,405.79a58.7,58.7,0,0,1,18.21-15.92c10-5.75,16-6.37,21.34-6.92,5.13-.53,9.55-1,17.67-5.67s11.33-8.64,15-13.22c3.88-4.76,8.26-10.17,18.21-15.92s16-6.36,21.35-6.91c5.12-.53,9.55-1,17.67-5.67s11.32-8.64,15-13.22a58.83,58.83,0,0,1,18.21-15.92c10-5.74,16-6.36,21.34-6.91,5.13-.53,9.56-1,17.67-5.68s11.33-8.64,15.05-13.21a58.83,58.83,0,0,1,18.21-15.93c10-5.74,16-6.36,21.35-6.91,5.12-.53,9.54-1,17.66-5.67s11.33-8.64,15-13.22A58.83,58.83,0,0,1,903.83,223c9.95-5.74,16-6.36,21.34-6.91,5.13-.53,9.55-1,17.67-5.68.76-.44,1.47-.87,2.15-1.3l-7.24-21c-.71.44-1.44.89-2.21,1.34-9.95,5.74-16,6.37-21.34,6.92-5.13.53-9.56,1-17.67,5.67s-11.33,8.64-15,13.21a58.83,58.83,0,0,1-18.21,15.92c-9.95,5.74-16,6.37-21.35,6.92-5.12.53-9.55,1-17.66,5.67s-11.32,8.64-15,13.22A58.88,58.88,0,0,1,791,272.86c-10,5.75-16,6.37-21.34,6.93-5.13.53-9.55,1-17.67,5.67s-11.33,8.64-15,13.21a59,59,0,0,1-18.21,15.92c-10,5.74-16,6.37-21.35,6.92-5.12.53-9.55,1-17.67,5.67s-11.32,8.64-15,13.21a58.83,58.83,0,0,1-18.21,15.92c-10,5.74-16,6.37-21.34,6.92-5.13.53-9.56,1-17.67,5.67s-11.33,8.64-15,13.22c-3.88,4.77-8.26,10.17-18.21,15.91-1,.59-2,1.12-2.94,1.6l7.27,21c.93-.47,1.92-1,3-1.61C589.62,414.32,592.83,410.36,596.55,405.79Z" style="fill:none"/><path d="M550.45,273.39a58.83,58.83,0,0,1,18.21-15.92c10-5.74,16-6.37,21.34-6.92,5.13-.52,9.55-1,17.67-5.67s11.33-8.64,15.05-13.22a58.82,58.82,0,0,1,18.21-15.91c10-5.75,16-6.37,21.34-6.92,5.12-.53,9.55-1,17.67-5.67s11.33-8.64,15-13.22A58.69,58.69,0,0,1,713.19,174c9.95-5.75,16-6.37,21.34-6.92,5.13-.53,9.56-1,17.67-5.68s11.33-8.63,15-13.21a58.83,58.83,0,0,1,18.21-15.92c9.95-5.74,16-6.37,21.35-6.92,5.12-.53,9.55-1,17.67-5.67s11.32-8.64,15-13.22a58.69,58.69,0,0,1,18.21-15.91c9.95-5.75,16-6.37,21.34-6.92a35.92,35.92,0,0,0,14-3.73,29.32,29.32,0,0,0-29.66-.2L558.66,255.06a43.57,43.57,0,0,0-21.2,30.3C544.09,281.2,547.07,277.56,550.45,273.39Z" style="fill:none"/><path d="M605.77,432.26A58.69,58.69,0,0,1,624,416.35c9.95-5.75,16-6.37,21.34-6.92,5.13-.53,9.55-1,17.67-5.68s11.33-8.63,15-13.21c3.88-4.77,8.26-10.17,18.21-15.91s16-6.37,21.35-6.93c5.12-.52,9.55-1,17.67-5.67s11.32-8.63,15-13.21a58.83,58.83,0,0,1,18.21-15.92c10-5.74,16-6.37,21.34-6.92,5.13-.52,9.56-1,17.67-5.67s11.33-8.63,15-13.21c3.88-4.77,8.27-10.18,18.22-15.92s16-6.37,21.34-6.92c5.13-.53,9.55-1,17.67-5.68s11.33-8.63,15.05-13.21a58.83,58.83,0,0,1,18.21-15.92c10-5.74,16-6.37,21.34-6.92,5.13-.52,9.55-1,17.67-5.67.74-.42,1.42-.84,2.08-1.26l-7.24-21c-.69.43-1.39.86-2.14,1.29-10,5.74-16,6.36-21.34,6.91-5.13.53-9.56,1-17.67,5.68s-11.33,8.64-15,13.21a58.7,58.7,0,0,1-18.21,15.92c-10,5.75-16,6.36-21.35,6.92-5.12.53-9.55,1-17.66,5.67s-11.33,8.64-15,13.21a58.89,58.89,0,0,1-18.22,15.93c-10,5.74-16,6.36-21.34,6.91-5.13.53-9.55,1-17.67,5.67s-11.33,8.64-15,13.22A59,59,0,0,1,728,341.07c-10,5.74-16,6.36-21.35,6.91-5.12.53-9.55,1-17.67,5.68s-11.32,8.64-15,13.21a58.7,58.7,0,0,1-18.21,15.92c-10,5.75-16,6.37-21.34,6.92-5.13.53-9.56,1-17.67,5.67s-11.33,8.64-15,13.21a58.64,58.64,0,0,1-18.2,15.92c-1,.6-2,1.13-3,1.62l7.27,21c.95-.48,1.94-1,3-1.63C598.84,440.79,602.05,436.84,605.77,432.26Z" style="fill:none"/><path d="M555.54,276.2c3.71-4.57,6.92-8.53,15-13.21s12.55-5.15,17.67-5.68c5.34-.55,11.39-1.17,21.34-6.92a58.69,58.69,0,0,0,18.21-15.91c3.72-4.58,6.93-8.53,15.05-13.22s12.54-5.14,17.66-5.67c5.35-.55,11.4-1.18,21.35-6.92a58.83,58.83,0,0,0,18.21-15.92c3.71-4.57,6.92-8.52,15-13.21s12.55-5.14,17.67-5.67c5.34-.55,11.39-1.18,21.34-6.92A58.89,58.89,0,0,0,772.34,151c3.72-4.58,6.92-8.53,15-13.22s12.54-5.13,17.67-5.66c5.34-.56,11.39-1.19,21.34-6.93s14.34-11.15,18.22-15.91c3.71-4.58,6.92-8.53,15-13.22s12.54-5.14,17.67-5.67,11.2-1.17,20.87-6.66a29.13,29.13,0,0,0-5.11-3.83,35.92,35.92,0,0,1-14,3.73c-5.34.55-11.39,1.17-21.34,6.92a58.69,58.69,0,0,0-18.21,15.91c-3.72,4.58-6.93,8.53-15,13.22s-12.55,5.14-17.67,5.67c-5.34.55-11.4,1.18-21.35,6.92a58.83,58.83,0,0,0-18.21,15.92c-3.72,4.58-6.93,8.53-15,13.21s-12.54,5.15-17.67,5.68c-5.34.55-11.39,1.17-21.34,6.92A58.69,58.69,0,0,0,695,189.94c-3.71,4.58-6.93,8.53-15,13.22s-12.55,5.14-17.67,5.67c-5.34.55-11.39,1.17-21.34,6.92a58.82,58.82,0,0,0-18.21,15.91c-3.72,4.58-6.94,8.53-15.05,13.22S595.13,250,590,250.55c-5.34.55-11.39,1.18-21.34,6.92a58.83,58.83,0,0,0-18.21,15.92c-3.38,4.17-6.36,7.81-13,12a44.62,44.62,0,0,0-.65,7l.52-.29C547.28,286.37,551.66,281,555.54,276.2Z" style="fill:#fcc6df"/><path d="M564.76,302.68c3.71-4.58,6.92-8.53,15-13.22s12.54-5.14,17.67-5.67c5.34-.55,11.39-1.17,21.34-6.92A58.7,58.7,0,0,0,637,261c3.72-4.57,6.92-8.52,15-13.21s12.55-5.14,17.67-5.67c5.34-.55,11.4-1.17,21.35-6.92s14.33-11.15,18.21-15.92c3.71-4.57,6.92-8.52,15-13.21s12.54-5.15,17.67-5.68c5.34-.55,11.39-1.17,21.34-6.91a58.89,58.89,0,0,0,18.22-15.93c3.72-4.57,6.92-8.52,15-13.21s12.54-5.14,17.66-5.67c5.35-.55,11.41-1.17,21.36-6.92a58.64,58.64,0,0,0,18.2-15.92c3.72-4.57,6.93-8.52,15-13.21s12.54-5.14,17.67-5.67c5.34-.56,11.39-1.17,21.34-6.92.86-.49,1.66-1,2.43-1.47l-1.9-5.53c-.77.49-1.58,1-2.45,1.49-8.12,4.68-12.54,5.14-17.67,5.67-5.34.55-11.39,1.17-21.34,6.91A59,59,0,0,0,848.74,133c-3.72,4.58-6.93,8.54-15,13.22s-12.55,5.14-17.67,5.67c-5.34.55-11.4,1.17-21.35,6.92a58.7,58.7,0,0,0-18.21,15.92c-3.72,4.58-6.93,8.53-15.05,13.22s-12.54,5.14-17.67,5.67c-5.34.55-11.39,1.17-21.34,6.91a59,59,0,0,0-18.21,15.92c-3.72,4.58-6.93,8.53-15,13.22s-12.55,5.14-17.67,5.67c-5.34.55-11.4,1.17-21.35,6.92a58.64,58.64,0,0,0-18.2,15.92c-3.72,4.57-6.94,8.53-15.05,13.21s-12.54,5.14-17.67,5.67c-5.34.55-11.39,1.17-21.34,6.92a58.7,58.7,0,0,0-18.21,15.92c-3.72,4.57-6.93,8.53-15,13.21-1,.58-1.93,1.08-2.82,1.54l1.91,5.52c.91-.47,1.85-1,2.83-1.54C556.5,312.85,560.88,307.44,564.76,302.68Z" style="fill:#fcc6df"/><path d="M574,329.16c3.71-4.58,6.92-8.53,15-13.22s12.54-5.14,17.67-5.67c5.34-.55,11.39-1.17,21.34-6.92a58.82,58.82,0,0,0,18.21-15.91c3.72-4.58,6.93-8.53,15-13.22s12.54-5.14,17.66-5.67c5.35-.55,11.4-1.18,21.35-6.92a59,59,0,0,0,18.21-15.92c3.71-4.57,6.92-8.52,15-13.21s12.54-5.14,17.67-5.67c5.34-.55,11.39-1.18,21.34-6.92A58.89,58.89,0,0,0,790.78,204c3.72-4.58,6.92-8.53,15-13.22s12.54-5.13,17.66-5.67c5.35-.55,11.4-1.18,21.35-6.92a59,59,0,0,0,18.22-15.92c3.71-4.57,6.92-8.52,15-13.21s12.54-5.14,17.67-5.67c5.34-.55,11.39-1.18,21.34-6.92.83-.48,1.61-1,2.36-1.43l-1.91-5.53c-.74.48-1.52.95-2.37,1.44-8.12,4.69-12.54,5.15-17.67,5.68-5.34.55-11.39,1.17-21.34,6.92A58.69,58.69,0,0,0,858,159.45C854.24,164,851,168,842.91,172.67s-12.54,5.14-17.66,5.67c-5.35.55-11.4,1.17-21.35,6.92a58.7,58.7,0,0,0-18.21,15.92c-3.72,4.58-6.93,8.52-15.05,13.21s-12.54,5.15-17.67,5.67c-5.34.56-11.39,1.18-21.34,6.93a58.69,58.69,0,0,0-18.21,15.91c-3.71,4.58-6.93,8.53-15,13.21s-12.55,5.15-17.67,5.68c-5.34.55-11.39,1.17-21.34,6.92a58.88,58.88,0,0,0-18.22,15.91c-3.71,4.58-6.93,8.53-15,13.22s-12.54,5.14-17.67,5.67c-5.34.55-11.39,1.18-21.34,6.92a59,59,0,0,0-18.21,15.91c-3.71,4.59-6.93,8.54-15,13.22-1,.58-2,1.09-2.86,1.55l1.92,5.52c.92-.47,1.86-1,2.86-1.56C565.72,339.33,570.1,333.93,574,329.16Z" style="fill:#fcc6df"/><path d="M583.2,355.63c3.71-4.57,6.92-8.52,15-13.21s12.54-5.14,17.67-5.67c5.34-.55,11.39-1.17,21.34-6.92a58.7,58.7,0,0,0,18.21-15.92c3.72-4.57,6.92-8.52,15-13.21s12.55-5.14,17.67-5.67c5.34-.56,11.4-1.17,21.35-6.92s14.33-11.15,18.21-15.92c3.71-4.57,6.92-8.53,15-13.21s12.54-5.15,17.67-5.68c5.34-.55,11.39-1.17,21.34-6.91A58.89,58.89,0,0,0,800,230.46c3.72-4.57,6.92-8.52,15-13.21s12.54-5.14,17.66-5.67c5.35-.55,11.4-1.17,21.36-6.92a58.64,58.64,0,0,0,18.2-15.92c3.72-4.57,6.93-8.53,15-13.21s12.54-5.15,17.67-5.68c5.34-.55,11.39-1.17,21.34-6.91.8-.46,1.56-.92,2.29-1.38L926.7,156c-.72.46-1.48.92-2.3,1.4-8.12,4.68-12.54,5.14-17.67,5.67-5.34.55-11.39,1.17-21.34,6.91a59,59,0,0,0-18.21,15.92c-3.72,4.58-6.93,8.53-15,13.22s-12.55,5.14-17.67,5.67c-5.34.55-11.4,1.17-21.35,6.92a58.7,58.7,0,0,0-18.21,15.92c-3.72,4.57-6.93,8.53-15,13.21s-12.54,5.15-17.67,5.68c-5.34.55-11.39,1.17-21.34,6.91a58.83,58.83,0,0,0-18.21,15.92c-3.72,4.58-6.93,8.53-15,13.22s-12.55,5.14-17.67,5.67c-5.34.55-11.4,1.17-21.35,6.91a58.77,58.77,0,0,0-18.2,15.93c-3.72,4.57-6.94,8.53-15,13.21s-12.54,5.14-17.67,5.67c-5.34.55-11.39,1.17-21.34,6.92a58.7,58.7,0,0,0-18.21,15.92c-3.72,4.57-6.93,8.53-15,13.21-1,.59-2,1.11-2.9,1.58l1.92,5.52c.93-.49,1.89-1,2.9-1.58C574.94,365.81,579.32,360.4,583.2,355.63Z" style="fill:#fcc6df"/><path d="M592.42,382.12c3.71-4.58,6.92-8.53,15-13.22s12.54-5.14,17.67-5.67c5.34-.55,11.39-1.18,21.34-6.92a58.83,58.83,0,0,0,18.21-15.92c3.72-4.57,6.92-8.52,15-13.21s12.55-5.14,17.67-5.67c5.34-.55,11.4-1.18,21.35-6.92A59,59,0,0,0,737,298.67c3.71-4.57,6.92-8.52,15-13.21s12.54-5.14,17.67-5.67c5.34-.56,11.39-1.18,21.34-6.93A58.88,58.88,0,0,0,809.22,257c3.72-4.58,6.92-8.53,15-13.22s12.54-5.14,17.66-5.67c5.35-.55,11.4-1.18,21.35-6.92a58.83,58.83,0,0,0,18.21-15.92c3.72-4.57,6.93-8.52,15-13.21s12.54-5.14,17.67-5.67c5.34-.55,11.39-1.18,21.34-6.92.77-.45,1.5-.9,2.21-1.34l-1.9-5.53c-.71.45-1.44.89-2.23,1.35-8.12,4.69-12.54,5.15-17.67,5.67-5.34.56-11.39,1.18-21.34,6.93a58.69,58.69,0,0,0-18.21,15.91c-3.72,4.58-6.93,8.53-15,13.21s-12.54,5.15-17.67,5.68c-5.34.55-11.39,1.17-21.34,6.92S808,249.37,804.12,254.14c-3.71,4.58-6.92,8.52-15,13.21s-12.54,5.15-17.67,5.67c-5.34.55-11.39,1.18-21.34,6.92a58.83,58.83,0,0,0-18.21,15.92c-3.72,4.58-6.93,8.53-15,13.21s-12.55,5.15-17.67,5.68c-5.34.55-11.39,1.17-21.35,6.92s-14.33,11.14-18.21,15.91c-3.71,4.58-6.93,8.53-15,13.22s-12.54,5.14-17.67,5.67c-5.34.55-11.39,1.17-21.34,6.92a58.82,58.82,0,0,0-18.21,15.91c-3.72,4.58-6.93,8.53-15,13.22-1,.59-2,1.12-2.93,1.59l1.91,5.52c.94-.48,1.91-1,2.94-1.6C584.16,392.29,588.54,386.89,592.42,382.12Z" style="fill:#fcc6df"/><path d="M601.63,408.59c3.72-4.57,6.93-8.52,15-13.21s12.54-5.14,17.67-5.67c5.34-.55,11.39-1.17,21.34-6.92a58.7,58.7,0,0,0,18.21-15.92c3.72-4.57,6.92-8.52,15-13.21s12.55-5.15,17.67-5.68c5.34-.55,11.4-1.17,21.35-6.91a59,59,0,0,0,18.21-15.92c3.71-4.58,6.92-8.53,15-13.22s12.54-5.14,17.67-5.67c5.34-.55,11.39-1.17,21.34-6.91a58.89,58.89,0,0,0,18.22-15.93c3.71-4.57,6.92-8.52,15-13.21s12.54-5.14,17.66-5.67c5.35-.56,11.4-1.17,21.35-6.92A58.7,58.7,0,0,0,890.7,241.7c3.72-4.57,6.93-8.53,15-13.21s12.54-5.15,17.67-5.68c5.34-.55,11.39-1.17,21.34-6.91.75-.43,1.45-.86,2.14-1.29L945,209.08c-.68.43-1.39.86-2.15,1.3-8.12,4.69-12.54,5.15-17.67,5.68-5.34.55-11.39,1.17-21.34,6.91a58.83,58.83,0,0,0-18.21,15.92c-3.72,4.58-6.93,8.53-15,13.22s-12.54,5.14-17.66,5.67c-5.35.55-11.4,1.17-21.35,6.91a58.83,58.83,0,0,0-18.21,15.93c-3.72,4.57-6.93,8.53-15.05,13.21s-12.54,5.15-17.67,5.68c-5.34.55-11.39,1.17-21.34,6.91a58.83,58.83,0,0,0-18.21,15.92c-3.72,4.58-6.93,8.53-15,13.22s-12.55,5.14-17.67,5.67c-5.34.55-11.4,1.17-21.35,6.91s-14.33,11.16-18.21,15.92c-3.71,4.58-6.93,8.53-15,13.22s-12.54,5.14-17.67,5.67c-5.34.55-11.39,1.17-21.34,6.92a58.7,58.7,0,0,0-18.21,15.92c-3.72,4.57-6.93,8.53-15,13.21-1,.61-2,1.14-3,1.61l1.91,5.52c1-.49,1.94-1,3-1.62A58.64,58.64,0,0,0,601.63,408.59Z" style="fill:#fcc6df"/><path d="M610.86,435.08c3.71-4.58,6.92-8.53,15-13.22s12.54-5.14,17.67-5.67c5.34-.55,11.39-1.18,21.34-6.92a58.83,58.83,0,0,0,18.21-15.92c3.72-4.57,6.92-8.52,15-13.21s12.55-5.14,17.67-5.67c5.34-.55,11.39-1.18,21.35-6.92a59,59,0,0,0,18.21-15.92c3.71-4.57,6.92-8.52,15-13.21s12.54-5.14,17.67-5.68c5.34-.55,11.39-1.17,21.34-6.92a58.76,58.76,0,0,0,18.22-15.92c3.72-4.57,6.92-8.52,15-13.21s12.54-5.14,17.66-5.67c5.35-.55,11.4-1.18,21.35-6.92a58.83,58.83,0,0,0,18.21-15.92c3.72-4.57,6.93-8.52,15.05-13.21s12.54-5.14,17.67-5.67c5.34-.56,11.39-1.18,21.34-6.93.72-.41,1.4-.83,2.07-1.24l-1.91-5.53c-.66.42-1.34.84-2.08,1.26-8.12,4.69-12.54,5.15-17.67,5.67-5.34.55-11.39,1.18-21.34,6.92a58.83,58.83,0,0,0-18.21,15.92c-3.72,4.58-6.93,8.53-15.05,13.21s-12.54,5.15-17.67,5.68c-5.34.55-11.39,1.17-21.34,6.92s-14.34,11.15-18.22,15.92c-3.71,4.58-6.92,8.52-15,13.21S795,325.46,789.85,326c-5.34.55-11.39,1.18-21.34,6.92a58.83,58.83,0,0,0-18.21,15.92c-3.72,4.58-6.93,8.53-15,13.21s-12.55,5.15-17.67,5.67c-5.34.56-11.4,1.18-21.35,6.93S681.91,385.77,678,390.54c-3.71,4.58-6.93,8.53-15,13.21s-12.54,5.15-17.67,5.68c-5.34.55-11.39,1.17-21.34,6.92a58.69,58.69,0,0,0-18.21,15.91c-3.72,4.58-6.93,8.53-15,13.22-1.07.61-2.06,1.15-3,1.63l1.91,5.52c1-.5,2-1,3-1.64C602.6,445.25,607,439.84,610.86,435.08Z" style="fill:#fcc6df"/><path d="M620.07,461.55c3.72-4.57,6.93-8.52,15-13.21s12.54-5.14,17.67-5.67c5.34-.56,11.39-1.17,21.34-6.92a58.7,58.7,0,0,0,18.21-15.92c3.72-4.57,6.92-8.53,15-13.21s12.55-5.15,17.67-5.68c5.34-.55,11.4-1.17,21.35-6.91a58.76,58.76,0,0,0,18.2-15.92c3.72-4.58,6.93-8.53,15-13.22s12.54-5.14,17.67-5.67c5.34-.55,11.39-1.17,21.34-6.91a59,59,0,0,0,18.22-15.93c3.71-4.57,6.92-8.53,15-13.21s12.54-5.14,17.66-5.67c5.35-.56,11.4-1.18,21.35-6.92a58.83,58.83,0,0,0,18.21-15.92c3.72-4.58,6.93-8.53,15.05-13.22s12.54-5.14,17.67-5.67c5.34-.55,11.39-1.17,21.34-6.91.69-.4,1.35-.8,2-1.2l-1.9-5.53c-.64.4-1.3.8-2,1.21-8.12,4.69-12.55,5.15-17.67,5.68-5.34.55-11.39,1.17-21.34,6.92a58.69,58.69,0,0,0-18.21,15.91c-3.72,4.58-6.93,8.53-15,13.22s-12.54,5.14-17.66,5.67c-5.35.55-11.4,1.17-21.35,6.92s-14.34,11.15-18.22,15.92c-3.71,4.57-6.92,8.52-15,13.21s-12.54,5.14-17.67,5.67c-5.34.56-11.39,1.18-21.34,6.93a58.69,58.69,0,0,0-18.21,15.91c-3.72,4.57-6.93,8.53-15,13.21s-12.55,5.15-17.67,5.68c-5.34.55-11.39,1.17-21.34,6.92S691.13,412.25,687.25,417c-3.71,4.58-6.93,8.53-15,13.22s-12.54,5.14-17.67,5.67c-5.34.55-11.39,1.18-21.34,6.92A58.83,58.83,0,0,0,615,458.75c-3.72,4.57-6.93,8.53-15,13.21-1.08.62-2.09,1.16-3.05,1.65l1.92,5.52c1-.5,2-1,3-1.66A58.64,58.64,0,0,0,620.07,461.55Z" style="fill:#fcc6df"/><path d="M629.3,488c3.71-4.57,6.92-8.52,15-13.21s12.54-5.14,17.67-5.67c5.34-.55,11.39-1.18,21.34-6.92a58.83,58.83,0,0,0,18.21-15.92c3.72-4.57,6.92-8.52,15-13.21s12.55-5.14,17.67-5.67c5.34-.56,11.39-1.18,21.34-6.93a58.88,58.88,0,0,0,18.22-15.91c3.71-4.57,6.92-8.53,15-13.21s12.54-5.15,17.67-5.68c5.34-.55,11.39-1.17,21.34-6.92a58.76,58.76,0,0,0,18.22-15.92c3.71-4.57,6.92-8.52,15-13.21s12.54-5.14,17.66-5.67c5.35-.55,11.4-1.18,21.35-6.92a58.83,58.83,0,0,0,18.21-15.92c3.72-4.57,6.93-8.52,15-13.21s12.54-5.15,17.67-5.68c5.34-.55,11.39-1.17,21.34-6.92.66-.38,1.3-.76,1.92-1.15l-1.91-5.53c-.61.39-1.25.78-1.93,1.17-8.12,4.69-12.54,5.15-17.67,5.67-5.34.55-11.39,1.18-21.34,6.92a58.83,58.83,0,0,0-18.21,15.92c-3.72,4.58-6.93,8.53-15,13.21s-12.54,5.15-17.67,5.67c-5.34.56-11.39,1.18-21.34,6.93S844.88,355.29,841,360.05c-3.71,4.58-6.92,8.53-15,13.22s-12.54,5.15-17.67,5.67c-5.34.55-11.39,1.18-21.34,6.92a58.83,58.83,0,0,0-18.21,15.92c-3.72,4.58-6.93,8.53-15,13.21s-12.54,5.15-17.66,5.67c-5.35.55-11.4,1.18-21.35,6.92a59,59,0,0,0-18.21,15.92c-3.71,4.58-6.93,8.53-15,13.21s-12.54,5.15-17.67,5.68c-5.34.55-11.39,1.17-21.34,6.92a58.69,58.69,0,0,0-18.21,15.91c-3.72,4.58-6.93,8.53-15.05,13.22-1.09.63-2.11,1.17-3.08,1.66l1.92,5.53c1-.51,2-1.06,3.08-1.68A59,59,0,0,0,629.3,488Z" style="fill:#fcc6df"/><path d="M638.51,514.51c3.72-4.57,6.93-8.52,15-13.21s12.54-5.14,17.67-5.68c5.34-.55,11.39-1.17,21.34-6.91a58.83,58.83,0,0,0,18.21-15.92c3.72-4.58,6.92-8.53,15-13.22s12.55-5.14,17.67-5.67c5.34-.54,11.4-1.17,21.35-6.91A58.76,58.76,0,0,0,783,431.07c3.72-4.58,6.93-8.53,15.05-13.22s12.54-5.14,17.67-5.67c5.34-.55,11.39-1.17,21.34-6.92s14.34-11.15,18.22-15.92c3.71-4.57,6.92-8.53,15-13.21S882.9,371,888,370.46c5.35-.56,11.4-1.18,21.35-6.92a58.83,58.83,0,0,0,18.21-15.92c3.72-4.58,6.93-8.53,15-13.22s12.54-5.14,17.66-5.67c5.35-.54,11.4-1.17,21.35-6.91.64-.37,1.25-.74,1.85-1.11l-1.91-5.53c-.59.37-1.21.74-1.86,1.12-8.12,4.69-12.55,5.14-17.67,5.67-5.34.56-11.39,1.18-21.34,6.93a58.69,58.69,0,0,0-18.21,15.91c-3.72,4.57-6.93,8.53-15,13.21s-12.54,5.15-17.67,5.68c-5.34.55-11.39,1.17-21.34,6.92s-14.34,11.15-18.22,15.92c-3.71,4.57-6.92,8.52-15,13.21s-12.54,5.14-17.67,5.67c-5.34.55-11.39,1.18-21.34,6.93A58.69,58.69,0,0,0,778,428.26c-3.72,4.57-6.93,8.53-15,13.21s-12.55,5.15-17.67,5.68c-5.34.55-11.4,1.17-21.35,6.92S709.57,465.21,705.69,470c-3.71,4.58-6.93,8.53-15,13.22s-12.54,5.14-17.67,5.67c-5.34.55-11.39,1.17-21.34,6.92a58.82,58.82,0,0,0-18.21,15.91c-3.72,4.58-6.93,8.53-15,13.22-1.11.64-2.14,1.19-3.12,1.68l.76,2.22a31.53,31.53,0,0,0,1.33,3.22c.95-.49,1.92-1,2.95-1.61A58.64,58.64,0,0,0,638.51,514.51Z" style="fill:#fcc6df"/><path d="M658.53,544.63l314.3-181.92a29.39,29.39,0,0,0,13.06-35l-9-26.08L610.37,512.48,616,528.82A29.39,29.39,0,0,0,658.53,544.63Z" style="fill:#fff"/><path d="M650.11,510l-1.78,1a3.6,3.6,0,0,0-1.58,4.37l3.7,10a3.45,3.45,0,0,0,5,1.79l1.78-1a3.59,3.59,0,0,0,1.58-4.36l-3.7-10.05A3.45,3.45,0,0,0,650.11,510Z" style="fill:#dae1e6"/><path d="M663,502.57l-1.78,1a3.59,3.59,0,0,0-1.58,4.36l3.71,10a3.45,3.45,0,0,0,4.95,1.8l1.79-1a3.6,3.6,0,0,0,1.58-4.36l-3.71-10A3.45,3.45,0,0,0,663,502.57Z" style="fill:#dae1e6"/><path d="M675.87,495.16l-1.78,1a3.59,3.59,0,0,0-1.58,4.36l3.71,10a3.44,3.44,0,0,0,4.95,1.8l1.79-1a3.59,3.59,0,0,0,1.58-4.36l-3.71-10A3.46,3.46,0,0,0,675.87,495.16Z" style="fill:#dae1e6"/><path d="M688.75,487.76l-1.78,1a3.59,3.59,0,0,0-1.58,4.36l3.71,10a3.45,3.45,0,0,0,5,1.8l1.78-1a3.6,3.6,0,0,0,1.58-4.37l-3.71-10A3.45,3.45,0,0,0,688.75,487.76Z" style="fill:#dae1e6"/><path d="M701.64,480.35l-1.79,1a3.61,3.61,0,0,0-1.58,4.37l3.71,10a3.45,3.45,0,0,0,5,1.79l1.78-1a3.59,3.59,0,0,0,1.58-4.36l-3.71-10A3.44,3.44,0,0,0,701.64,480.35Z" style="fill:#dae1e6"/><path d="M714.52,472.94l-1.78,1a3.6,3.6,0,0,0-1.59,4.36l3.71,10a3.46,3.46,0,0,0,5,1.8l1.78-1a3.59,3.59,0,0,0,1.58-4.36l-3.7-10A3.45,3.45,0,0,0,714.52,472.94Z" style="fill:#dae1e6"/><path d="M727.4,465.53l-1.78,1a3.59,3.59,0,0,0-1.58,4.36l3.7,10a3.45,3.45,0,0,0,5,1.8l1.78-1a3.59,3.59,0,0,0,1.58-4.36l-3.7-10A3.46,3.46,0,0,0,727.4,465.53Z" style="fill:#dae1e6"/><path d="M740.28,458.13l-1.78,1a3.59,3.59,0,0,0-1.58,4.36l3.71,10.05a3.44,3.44,0,0,0,5,1.79l1.79-1A3.61,3.61,0,0,0,749,470l-3.71-10A3.45,3.45,0,0,0,740.28,458.13Z" style="fill:#dae1e6"/><path d="M753.16,450.72l-1.78,1a3.6,3.6,0,0,0-1.58,4.37l3.71,10a3.44,3.44,0,0,0,5,1.79l1.79-1a3.59,3.59,0,0,0,1.58-4.36l-3.71-10A3.45,3.45,0,0,0,753.16,450.72Z" style="fill:#dae1e6"/><path d="M766,443.31l-1.78,1a3.59,3.59,0,0,0-1.58,4.36l3.71,10a3.46,3.46,0,0,0,5,1.8l1.78-1a3.59,3.59,0,0,0,1.58-4.36l-3.71-10A3.45,3.45,0,0,0,766,443.31Z" style="fill:#dae1e6"/><path d="M778.93,435.9l-1.79,1a3.6,3.6,0,0,0-1.58,4.36l3.71,10a3.45,3.45,0,0,0,5,1.8l1.78-1a3.59,3.59,0,0,0,1.58-4.36l-3.71-10A3.45,3.45,0,0,0,778.93,435.9Z" style="fill:#dae1e6"/><path d="M791.81,428.5l-1.78,1a3.62,3.62,0,0,0-1.59,4.37l3.71,10a3.45,3.45,0,0,0,5,1.79l1.78-1a3.6,3.6,0,0,0,1.58-4.37l-3.7-10A3.45,3.45,0,0,0,791.81,428.5Z" style="fill:#dae1e6"/><path d="M804.69,421.09l-1.78,1a3.6,3.6,0,0,0-1.58,4.37l3.7,10a3.45,3.45,0,0,0,5,1.79l1.78-1a3.59,3.59,0,0,0,1.58-4.36l-3.7-10A3.45,3.45,0,0,0,804.69,421.09Z" style="fill:#dae1e6"/><path d="M817.57,413.68l-1.78,1a3.59,3.59,0,0,0-1.58,4.36l3.71,10a3.45,3.45,0,0,0,5,1.8l1.79-1a3.6,3.6,0,0,0,1.58-4.36l-3.71-10A3.45,3.45,0,0,0,817.57,413.68Z" style="fill:#dae1e6"/><path d="M830.45,406.27l-1.78,1a3.59,3.59,0,0,0-1.58,4.36l3.71,10a3.44,3.44,0,0,0,5,1.8l1.79-1a3.59,3.59,0,0,0,1.58-4.36l-3.71-10A3.46,3.46,0,0,0,830.45,406.27Z" style="fill:#dae1e6"/><path d="M843.33,398.87l-1.78,1a3.6,3.6,0,0,0-1.58,4.37l3.71,10a3.45,3.45,0,0,0,5,1.79l1.78-1A3.6,3.6,0,0,0,852,410.7l-3.71-10A3.45,3.45,0,0,0,843.33,398.87Z" style="fill:#dae1e6"/><path d="M856.22,391.46l-1.79,1a3.61,3.61,0,0,0-1.58,4.37l3.71,10a3.45,3.45,0,0,0,5,1.79l1.78-1a3.59,3.59,0,0,0,1.58-4.36l-3.71-10A3.44,3.44,0,0,0,856.22,391.46Z" style="fill:#dae1e6"/><path d="M869.1,384.05l-1.78,1a3.6,3.6,0,0,0-1.59,4.36l3.71,10a3.46,3.46,0,0,0,5,1.8l1.78-1a3.59,3.59,0,0,0,1.58-4.36l-3.7-10A3.45,3.45,0,0,0,869.1,384.05Z" style="fill:#dae1e6"/><path d="M882,376.64l-1.78,1a3.59,3.59,0,0,0-1.58,4.36l3.7,10a3.45,3.45,0,0,0,5,1.8l1.78-1a3.59,3.59,0,0,0,1.58-4.36l-3.7-10A3.46,3.46,0,0,0,882,376.64Z" style="fill:#dae1e6"/><path d="M894.86,369.24l-1.78,1a3.6,3.6,0,0,0-1.58,4.37l3.71,10a3.44,3.44,0,0,0,4.95,1.79l1.79-1a3.61,3.61,0,0,0,1.58-4.37l-3.71-10A3.45,3.45,0,0,0,894.86,369.24Z" style="fill:#dae1e6"/><path d="M907.74,361.83l-1.78,1a3.6,3.6,0,0,0-1.58,4.37l3.71,10a3.45,3.45,0,0,0,5,1.79l1.78-1a3.59,3.59,0,0,0,1.58-4.36l-3.71-10A3.45,3.45,0,0,0,907.74,361.83Z" style="fill:#dae1e6"/><path d="M920.62,354.42l-1.78,1a3.59,3.59,0,0,0-1.58,4.36l3.71,10a3.45,3.45,0,0,0,5,1.8l1.78-1a3.59,3.59,0,0,0,1.58-4.36l-3.71-10A3.45,3.45,0,0,0,920.62,354.42Z" style="fill:#dae1e6"/><path d="M933.51,347l-1.79,1a3.6,3.6,0,0,0-1.58,4.36l3.71,10a3.45,3.45,0,0,0,5,1.8l1.78-1a3.59,3.59,0,0,0,1.58-4.36l-3.71-10A3.45,3.45,0,0,0,933.51,347Z" style="fill:#dae1e6"/><path d="M946.39,339.61l-1.78,1A3.62,3.62,0,0,0,943,345l3.71,10a3.45,3.45,0,0,0,5,1.79l1.78-1a3.6,3.6,0,0,0,1.58-4.37l-3.7-10A3.45,3.45,0,0,0,946.39,339.61Z" style="fill:#dae1e6"/><path d="M959.27,332.2l-1.78,1a3.6,3.6,0,0,0-1.58,4.37l3.7,10a3.45,3.45,0,0,0,5,1.79l1.78-1a3.59,3.59,0,0,0,1.58-4.36l-3.7-10A3.45,3.45,0,0,0,959.27,332.2Z" style="fill:#dae1e6"/><path d="M631.26,405.6c-1.81,1-4.73-2-6.52-6.88-1.58-4.29-1.74-8.52-.49-10.15l-10.58-19.83a41.82,41.82,0,0,1-2.36-10.57,8.15,8.15,0,0,1,3.7-7.36l-2.67.06,5.65-5.49-2.77-1.77a25.93,25.93,0,0,1,8.89-8.16c13.77-7.92,35.89,3.67,35.89,3.67s5.57,8,7,11.24c.87,1.91,1.38,8.86,1.66,14.23,1.46,1.05,3,3.4,4.17,6.46,1.79,4.84,1.77,9.61,0,10.65a1.48,1.48,0,0,1-.79.2c.77,2.56,1.41,4.73,1.85,6.27,3,10.24,1.67,17.32,2.79,24.13s7.29,13,11.64,14.18c2.77.78,12.42-.45,19.1-1.45.12,7.8-3,15-8.5,18.17l-51,29.31c-5.06,2.91-10.89,1.68-15.43-2.57,4.24-4.78,14.89-17,16.55-20.89,2.09-4.92,2.34-14.77-1.08-20.25s-8.56-8.87-12.89-18.32c-.68-1.51-1.66-3.7-2.8-6.3a2.56,2.56,0,0,1-1,1.42m17.58-98-6.93,4-44,25.32c-7.72,4.44-10.73,16.85-6.73,27.7L626.7,460.9c4,10.85,13.52,16.05,21.24,11.61l40.23-23.13,1.78-1,9-5.16a16.35,16.35,0,0,0,6.8-8.38,25.14,25.14,0,0,0,1.67-8,28.67,28.67,0,0,0-1.16-9.6c-.17-.59-.36-1.17-.58-1.75l-1.88-5.09-3.36-9.1-2.51-6.82-4.59-12.42-2.52-6.83-4.59-12.42L683.67,356l-4.59-12.42-2.51-6.82L672,324.33l-1.9-5.14c-.21-.57-.44-1.13-.68-1.67-2.48-5.55-6.45-9.38-10.78-10.85a11.64,11.64,0,0,0-9.78.91" style="fill:#fff"/><g style="clip-path:url(#clip-path-2)"><path d="M624.11,335.45a25.93,25.93,0,0,0-8.89,8.16l2.77,1.77-3.93,3.81,1,1.62a8.15,8.15,0,0,0-3.7,7.36,41.82,41.82,0,0,0,2.36,10.57l10.58,19.83c-1.25,1.63-1.09,5.86.49,10.15,1.79,4.84,4.71,7.92,6.52,6.88a2.56,2.56,0,0,0,1-1.42c1.14,2.6,2.12,4.79,2.8,6.3,4.33,9.45,9.48,12.83,12.89,18.32s3.17,15.33,1.08,20.25c-1.66,3.93-12.31,16.11-16.55,20.89,4.54,4.25,10.37,5.48,15.43,2.57l51-29.31c5.51-3.16,8.62-10.37,8.5-18.17-6.68,1-16.33,2.23-19.1,1.45-4.35-1.22-10.51-7.37-11.64-14.18s.17-13.89-2.79-24.13c-.44-1.54-1.08-3.71-1.85-6.27a1.48,1.48,0,0,0,.79-.2c1.82-1,1.84-5.81,0-10.65-1.13-3.06-2.71-5.41-4.17-6.46-.28-5.37-.79-12.32-1.66-14.23-1.47-3.26-7-11.24-7-11.24s-22.12-11.59-35.89-3.67" style="fill:#ffc4b2"/></g><path d="M690.44,426.72a1.72,1.72,0,0,0,0,1.79,6.51,6.51,0,0,1-1.11,8.24c-3,2.43-30,17.57-34.23,19.12-2.3.85-4.33-.87-5.69-2.6a2.65,2.65,0,0,0-2.36-1c-3.72,5.28-11.2,13.83-14.59,17.65,4.54,4.25,10.37,5.48,15.43,2.57l51-29.31c5.51-3.16,8.62-10.37,8.5-18.17C701.94,425.85,694.48,426.82,690.44,426.72Z" style="fill:#ff3d00"/><path d="M643.29,422.78c.94,1.1,1.85,2.14,2.7,3.22,6,4.89,13.28,6.89,21.12,3.51,8.08-3.48,9.73-10.93,9.75-16.33-.07-.29-.14-.58-.19-.88a44.08,44.08,0,0,1-.47-4.8c.2,5.57-.67,14.41-11.83,18.18C655.31,428.75,646.62,424.68,643.29,422.78Z" style="fill:#ffb199"/><path d="M651.8,354.38c-7.09-.61-14.42,2-21.87,6.31a16.47,16.47,0,0,0-6.77,21.07l5.29,11.6a.67.67,0,0,0,1.19-.56l-3.16-10.59a3.27,3.27,0,0,1,2.1-4l2.32.25c5.47,2.67,12.91,5.26,18.79,3.44,6.94-2.14,10.21-7.7,12.39-12.75a2.4,2.4,0,0,1,4.09-.54l3.2,4.1-2.73-7A17.74,17.74,0,0,0,651.8,354.38Z" style="fill:#ffb199"/><path d="M624.11,335.45c-2.86,1.64-6.31,3.5-8.74,6.07a1.73,1.73,0,0,0,.46,2.72l2.16,1.14-4.86,3.82a.92.92,0,0,0,.58,1.64l1.3,0a8.15,8.15,0,0,0-3.7,7.36,41.82,41.82,0,0,0,2.36,10.57s10.47,20,10.42,20.12l2.08,2a.68.68,0,0,0,1.1-.74L623,379.45a2.23,2.23,0,0,1,1.38-2.95l1-.05a1.12,1.12,0,0,0,.83-1.83l-1.63-2a.88.88,0,0,1,1.1-1.26c6.48,2.64,24.32,8,35-7.33a2.48,2.48,0,0,1,4.22.27l2.93,5.51a.86.86,0,0,0,1.62-.4,72,72,0,0,0-2.42-19c-1-3.44-5.25-8.45-7-11.24C654.2,330.06,637.88,327.53,624.11,335.45Z" style="fill:#37474f"/><g style="isolation:isolate"><path d="M612.36,301.32l-.22-2-1.53-.43,1.39-.81-.21-2,1.08,1.51,1.4-.8-.73,1.73,1.07,1.52-1.53-.44-.72,1.74m-8,.83-.22-2-1.52-.44,1.39-.8-.21-2,1.07,1.52,1.4-.81-.73,1.74,1.08,1.51-1.53-.43-.73,1.74M618,294.28l-.22-2-1.53-.43,1.4-.81-.22-2,1.09,1.51,1.39-.8-.73,1.74,1.08,1.51-1.53-.43-.73,1.73m-20.33,4.25-.22-2-1.53-.43,1.4-.81-.22-2,1.08,1.51,1.4-.81-.73,1.74,1.08,1.51-1.53-.43-.73,1.74m22.49-13-.21-2-1.54-.43,1.4-.81-.22-2,1.09,1.51,1.39-.8-.73,1.74,1.09,1.51-1.54-.43-.73,1.73m-27.83,5.74-.21-2-1.53-.44L592,288l-.21-2,1.08,1.5,1.4-.81-.74,1.75,1.08,1.51-1.52-.44-.74,1.74m26.9-15.53-.22-2-1.53-.44,1.4-.81-.22-2,1.08,1.51,1.4-.81-.73,1.74,1.08,1.51L620,274l-.73,1.73m-13.33,15.58-6.47-17.59,6.79-3.93,1.18,3.19-4.12,2.38,1.52,4.15,3.61-2.09,1.17,3.17L606,282.69l2.61,7.09-2.68,1.55m-15-10.39-.21-2-1.53-.44,1.39-.81-.21-2,1.08,1.5,1.4-.81-.73,1.75,1.08,1.51-1.53-.44-.74,1.74m23-13.25-.22-2-1.53-.45,1.4-.8-.21-2,1.08,1.51,1.39-.81-.72,1.75,1.07,1.5-1.53-.43-.73,1.74m-20.33,4.24-.21-2-1.54-.44,1.4-.81-.22-2,1.08,1.5,1.4-.8-.73,1.74,1.08,1.51-1.53-.43-.73,1.73m13.15-7.59-.21-2L605,261.9l1.4-.81-.22-2,1.08,1.51,1.39-.81-.72,1.75L609,263l-1.54-.43-.73,1.74m-7.46,1.38-.22-2-1.53-.44,1.4-.81-.22-2,1.08,1.51,1.4-.81-.73,1.75,1.08,1.51L600,264l-.73,1.74m15-19.06-34.08,19.68c-4.61,2.66-6.53,9.78-4.28,15.89l9.57,26c2.25,6.11,7.82,8.9,12.43,6.24L632,294.79c4.62-2.66,6.54-9.78,4.29-15.89l-9.57-26c-2.25-6.11-7.82-8.9-12.44-6.24" style="fill:#2979ff"/><polyline points="606.24 269.81 599.45 273.74 605.92 291.33 608.6 289.78 605.99 282.69 609.6 280.61 608.43 277.44 604.82 279.53 603.3 275.38 607.42 273 606.24 269.81" style="fill:#fff"/><polyline points="598.68 260.46 598.9 262.47 597.5 263.28 599.03 263.72 599.25 265.72 599.98 263.98 601.51 264.42 600.43 262.91 601.16 261.17 599.76 261.97 598.68 260.46" style="fill:#ffbc33"/><polyline points="592.99 266.68 593.21 268.68 591.81 269.49 593.35 269.93 593.56 271.93 594.29 270.2 595.82 270.63 594.74 269.12 595.47 267.38 594.08 268.18 592.99 266.68" style="fill:#ffbc33"/><polyline points="590.37 275.69 590.58 277.69 589.19 278.5 590.72 278.94 590.93 280.94 591.67 279.2 593.2 279.64 592.12 278.13 592.85 276.38 591.45 277.19 590.37 275.69" style="fill:#ffbc33"/><polyline points="591.79 286.03 592 288.03 590.61 288.84 592.14 289.28 592.35 291.28 593.09 289.54 594.62 289.98 593.53 288.47 594.27 286.72 592.87 287.53 591.79 286.03" style="fill:#ffbc33"/><polyline points="597.12 293.27 597.34 295.28 595.94 296.09 597.47 296.52 597.69 298.53 598.42 296.79 599.95 297.22 598.87 295.71 599.6 293.97 598.2 294.78 597.12 293.27" style="fill:#ffbc33"/><polyline points="603.84 296.88 604.05 298.9 602.65 299.7 604.18 300.14 604.4 302.15 605.13 300.41 606.66 300.84 605.58 299.33 606.32 297.59 604.91 298.4 603.84 296.88" style="fill:#ffbc33"/><polyline points="611.79 296.06 612 298.07 610.61 298.88 612.14 299.31 612.36 301.32 613.08 299.58 614.62 300.02 613.54 298.5 614.27 296.77 612.87 297.57 611.79 296.06" style="fill:#ffbc33"/><polyline points="617.45 289.02 617.67 291.03 616.27 291.84 617.8 292.27 618.02 294.29 618.75 292.55 620.28 292.98 619.2 291.47 619.93 289.73 618.54 290.53 617.45 289.02" style="fill:#ffbc33"/><polyline points="619.61 280.28 619.83 282.29 618.43 283.1 619.97 283.53 620.18 285.54 620.91 283.81 622.45 284.24 621.36 282.73 622.09 280.99 620.7 281.79 619.61 280.28" style="fill:#ffbc33"/><polyline points="618.68 270.5 618.9 272.5 617.5 273.31 619.03 273.75 619.25 275.75 619.98 274.02 621.51 274.45 620.43 272.94 621.16 271.2 619.76 272.01 618.68 270.5" style="fill:#ffbc33"/><polyline points="613.33 262.43 613.54 264.44 612.14 265.24 613.67 265.69 613.89 267.69 614.62 265.95 616.15 266.38 615.08 264.88 615.8 263.13 614.41 263.94 613.33 262.43" style="fill:#ffbc33"/><polyline points="606.15 259.08 606.37 261.09 604.97 261.89 606.5 262.33 606.71 264.34 607.44 262.6 608.98 263.03 607.9 261.53 608.63 259.78 607.23 260.59 606.15 259.08" style="fill:#ffbc33"/></g><g style="isolation:isolate"><path d="M743.92,191.26,675.45,230.8c-4.43,2.55-6.28,9.39-4.12,15.25s7.51,8.55,11.94,6l68.47-39.53c4.43-2.56,6.27-9.38,4.11-15.25s-7.5-8.55-11.93-6" style="fill:#2979ff"/></g><g style="isolation:isolate"><path d="M820.88,213,691.42,287.72c-2,1.13-2.79,4.16-1.83,6.76s3.33,3.8,5.3,2.67L824.35,222.4c2-1.14,2.79-4.17,1.83-6.78s-3.33-3.78-5.3-2.65" style="fill:#38454c"/></g><g style="isolation:isolate"><path d="M848.07,139.27l-76,44.06c-2,1.13-2.78,4.16-1.82,6.76s3.32,3.8,5.29,2.67l76-44.06c2-1.14,2.79-4.18,1.83-6.78s-3.33-3.79-5.3-2.65" style="fill:#2979ff"/></g><g style="isolation:isolate"><path d="M811.1,279.24,709.73,337.76c-2,1.13-2.78,4.17-1.82,6.77s3.33,3.79,5.29,2.66l101.37-58.52c2-1.14,2.78-4.17,1.82-6.78s-3.32-3.79-5.29-2.65" style="fill:#38454c"/></g><g style="isolation:isolate"><path d="M881.71,268.88,719.09,362.77c-2,1.13-2.79,4.17-1.83,6.77s3.33,3.79,5.3,2.66l162.62-93.9c2-1.13,2.79-4.16,1.84-6.76s-3.34-3.8-5.31-2.66" style="fill:#38454c"/></g><g style="isolation:isolate"><path d="M761.69,277.29,700.52,312.6c-2,1.14-2.78,4.17-1.83,6.77S702,323.16,704,322l61.17-35.32c2-1.13,2.78-4.16,1.82-6.77s-3.32-3.79-5.29-2.65" style="fill:#38454c"/></g><g style="isolation:isolate"><path d="M770.61,392.63a8.42,8.42,0,0,1-1.76,1.38,7.81,7.81,0,0,1-1.1.51l-.54.17a38.23,38.23,0,0,1-2.41,5c-2.86,4.83-7.68,11.63-12.88,14.63a9.72,9.72,0,0,1-5.62,1.5,5.55,5.55,0,0,1-1.24-.23c-.48.91-1,1.82-1.42,2.74,2.9,1.32,5.94.67,8.85-1,5.11-2.95,9.82-9.07,12.67-13.33a49,49,0,0,0,5.45-11.37m1.76-12.39c-.78.74-1.55,1.51-2.31,2.29a33.44,33.44,0,0,1-1.4,8,10.25,10.25,0,0,0,3.09-5c.3-.94.5-1.69.68-2.28a23,23,0,0,0-.06-3M741.86,384a1.23,1.23,0,0,0-.28.24c-3.72,4.06-5.66,9.85-5.54,16.3.1,5.52,1.39,12.78,5.21,16.19l.24.21c.43-.88.87-1.75,1.33-2.6-2.91-2.5-4.09-7.69-4.39-12.24-.4-6.1,1.17-11.64,4.7-15.5,1-1.13-.19-3.22-1.27-2.6m10.3-13.46a47.29,47.29,0,0,0-10.53,8.63c-1,1.14.18,3.22,1.27,2.6a1.78,1.78,0,0,0,.28-.23,45.16,45.16,0,0,1,10-8.32c4.18-2.41,8.69-3.58,12.38-1.3a9.51,9.51,0,0,1,4.25,6.88c.65-.64,1.31-1.27,2-1.88a14.37,14.37,0,0,0-3.21-6c-4.5-5-10.78-3.65-16.44-.38" style="fill:#38454c"/><path d="M751.09,401.1a118.06,118.06,0,0,0-8.27,13.27c-.46.85-.9,1.72-1.33,2.6-.26.54-.53,1.08-.78,1.63-.64,1.36.61,2.84,1.49,2.34a1.17,1.17,0,0,0,.45-.55l1-2.05c.46-.92.94-1.83,1.42-2.74a114.32,114.32,0,0,1,7.16-11.51c-.39-1-.78-2-1.13-3m4.43-5.89c-.86,1.09-1.71,2.19-2.54,3.31.41.92.8,1.9,1.17,2.89.43-.59.87-1.17,1.31-1.75,0-1.47.06-3,.06-4.45m3.3-4.08c-.33.4-.66.79-1,1.19,0,1.43,0,2.87,0,4.31,1-1.23,2-2.43,2.95-3.62a15.62,15.62,0,0,1-1.95-1.88m32.89-30a1,1,0,0,0-.13.09c-6.67,5.05-13.49,9.93-19.77,15.77-.66.61-1.32,1.24-2,1.88-1.26,1.24-2.49,2.52-3.7,3.86-1.88,2.1-3.78,4.25-5.66,6.46a8.48,8.48,0,0,0,2.1,1.72c1.69-2,3.41-3.92,5.11-5.81.77-.87,1.56-1.71,2.37-2.53s1.53-1.55,2.31-2.29c6.39-6.09,13.38-11.1,20.23-16.28,1.23-.92.32-3.57-.89-2.87" style="fill:#38454c"/><path d="M756.35,384.82a1.43,1.43,0,0,0-.68,1.19c-.18,2.94-.15,6.06-.15,9.2,0,1.49,0,3-.06,4.45s-.14,3.14-.3,4.67c-.32-1-.65-1.95-1-2.92s-.76-2-1.17-2.89a14.92,14.92,0,0,0-2.6-4.15,1,1,0,0,0-1.16-.17l-.27.13-.05,0c-1.3.75-.28,3.45,1.08,2.75h0c-.22.12.33,1.84,1.11,4,.35.95.74,2,1.13,3,1,2.65,2,5.18,2.26,5.77a1.11,1.11,0,0,0,1.59.75,1.23,1.23,0,0,0,.56-.81,59.24,59.24,0,0,0,1.19-13.17c0-1.44,0-2.88,0-4.31,0-.78,0-1.56,0-2.34.31.4.63.79,1,1.15a15.62,15.62,0,0,0,1.95,1.88,7.18,7.18,0,0,0,6.44,1.68l.54-.17a7.81,7.81,0,0,0,1.1-.51,8.42,8.42,0,0,0,1.76-1.38,12.84,12.84,0,0,0,2.17-3c.7-1.36.93-3,1.57-4.36.45-1,.35-1.25.49-1.33s.42,0,1.43,0a.85.85,0,0,0,.4-.12c1-.57.5-3-.83-2.89a5.3,5.3,0,0,0-2.24.48c-.61.35-.87.93-1.17,1.92-.18.59-.38,1.34-.68,2.28a10.25,10.25,0,0,1-3.09,5,4.27,4.27,0,0,1-.71.49,4.92,4.92,0,0,1-3.27.62,5.65,5.65,0,0,1-2.1-.73,8.48,8.48,0,0,1-2.1-1.72,23.52,23.52,0,0,1-2.77-3.91,1,1,0,0,0-1.36-.42" style="fill:#38454c"/></g></svg>